<?xml version="1.0" standalone="no"?>
<!DOCTYPE svg PUBLIC "-//W3C//DTD SVG 20010904//EN"
 "http://www.w3.org/TR/2001/REC-SVG-20010904/DTD/svg10.dtd">
<svg version="1.0" xmlns="http://www.w3.org/2000/svg"
 width="1964.000000pt" height="540.000000pt" viewBox="0 0 1964.000000 540.000000"
 preserveAspectRatio="xMidYMid meet">
<metadata>
Created by potrace 1.15, written by Peter Selinger 2001-2017
</metadata>
<g transform="translate(0.000000,540.000000) scale(0.100000,-0.100000)"
fill="#000000" stroke="none">
<path d="M2635 5277 c-115 -118 -159 -159 -220 -202 -15 -11 -39 -29 -54 -41
-36 -29 -199 -134 -219 -141 -10 -4 -19 -9 -22 -12 -3 -4 -48 -26 -100 -49
-52 -24 -104 -48 -114 -54 -52 -28 -233 -82 -361 -109 -49 -10 -110 -24 -135
-30 -28 -8 -150 -14 -325 -16 -153 -2 -282 -8 -285 -12 -3 -5 -2 -60 2 -123 7
-117 -4 -368 -22 -474 -54 -325 -188 -631 -404 -919 -63 -83 -246 -273 -328
-339 -27 -21 -48 -46 -48 -55 0 -9 14 -27 32 -41 186 -146 367 -358 501 -585
115 -196 202 -436 246 -680 19 -102 30 -354 22 -475 -4 -70 -4 -120 2 -128 8
-9 46 -11 171 -6 170 7 346 -5 495 -32 123 -23 278 -65 351 -94 133 -53 161
-65 225 -97 118 -59 147 -76 225 -128 86 -57 71 -46 178 -131 87 -71 211 -190
270 -261 19 -24 42 -43 52 -43 10 0 29 15 43 33 41 53 194 203 271 266 80 66
242 177 296 204 19 10 64 33 100 52 304 161 709 247 1089 231 93 -4 158 -3
165 3 8 7 9 39 4 113 -20 257 18 559 103 813 30 88 143 332 178 384 10 14 35
53 56 86 99 156 305 382 438 480 38 28 34 47 -20 91 -83 67 -267 256 -332 342
-182 240 -313 515 -375 787 -40 174 -49 274 -49 513 1 161 -2 222 -10 223 -7
0 -109 0 -227 -1 -118 0 -246 4 -285 9 -135 19 -255 41 -297 55 -24 8 -72 22
-106 31 -35 9 -71 20 -80 25 -10 4 -48 20 -87 36 -115 45 -347 165 -375 194
-3 3 -31 22 -62 43 -31 21 -66 46 -77 55 -11 9 -39 32 -63 51 -24 19 -97 90
-164 158 -67 67 -127 123 -135 123 -8 0 -68 -56 -134 -123z m84 -573 c1 -294
3 -284 -53 -284 -21 0 -22 6 -39 178 -9 97 -22 243 -29 325 l-11 147 59 54 59
54 6 -102 c4 -55 7 -223 8 -372z m231 346 c0 -27 -22 -289 -42 -497 -13 -144
-13 -143 -73 -127 -20 5 -20 11 -14 357 4 194 7 362 8 375 1 21 6 19 61 -30
43 -38 60 -60 60 -78z m-460 -82 c0 -27 41 -396 50 -453 16 -100 16 -102 -30
-107 -35 -3 -41 0 -45 17 -19 91 -39 198 -55 295 -11 63 -24 129 -29 147 -10
35 -6 40 59 87 40 28 50 31 50 14z m620 -25 c28 -21 50 -44 50 -52 0 -14 -15
-96 -46 -251 -8 -41 -19 -102 -25 -135 -17 -106 -14 -101 -59 -97 -46 5 -46 4
-29 117 8 62 49 428 49 448 0 13 9 8 60 -30z m-822 -140 c6 -21 20 -83 32
-138 11 -55 29 -140 40 -190 10 -49 18 -91 16 -92 -2 -2 -20 -4 -41 -6 l-38
-2 -58 195 c-32 107 -58 200 -58 205 0 9 74 62 90 64 3 1 11 -16 17 -36z
m1029 7 c46 -27 49 -34 32 -77 -6 -15 -19 -57 -29 -93 -56 -202 -72 -256 -80
-263 -4 -5 -24 -5 -44 -1 -35 6 -37 8 -31 38 58 280 94 428 103 424 4 -2 26
-14 49 -28z m-1207 -152 c12 -40 40 -125 61 -188 22 -63 39 -120 39 -126 0
-18 -71 -28 -81 -12 -10 15 -136 327 -141 346 -2 11 66 49 93 51 3 1 16 -32
29 -71z m1416 46 c29 -12 32 -17 25 -37 -5 -12 -35 -83 -66 -157 -31 -74 -61
-148 -67 -163 -10 -26 -14 -28 -47 -22 -20 4 -38 9 -41 11 -2 3 3 26 12 52 8
26 37 113 64 195 52 162 44 153 120 121z m-1591 -161 c26 -60 59 -131 72 -160
47 -105 47 -102 8 -120 -42 -20 -43 -19 -101 97 -20 41 -57 110 -80 152 -24
43 -44 83 -44 90 0 11 57 40 91 47 3 0 27 -47 54 -106z m1778 86 c46 -15 45
-25 -12 -125 -21 -38 -60 -111 -86 -161 -27 -51 -53 -93 -57 -93 -5 0 -22 7
-38 15 l-30 15 19 48 c28 68 109 251 129 290 9 17 21 30 27 28 5 -3 27 -10 48
-17z m-1925 -233 c56 -102 102 -188 102 -194 0 -9 -43 -32 -60 -32 -6 0 -36
39 -68 88 -32 48 -89 132 -125 187 -37 54 -67 102 -67 106 0 6 71 24 105 28 6
0 56 -82 113 -183z m2145 169 c20 -4 37 -10 37 -14 0 -3 -15 -29 -33 -56 -155
-233 -219 -325 -227 -325 -17 0 -60 23 -60 33 0 5 46 92 103 193 86 156 105
184 122 180 11 -3 37 -8 58 -11z m-2433 -98 c24 -34 60 -84 79 -112 19 -27 46
-66 60 -86 14 -20 45 -64 68 -97 l42 -60 -33 -26 -33 -25 -34 42 c-197 238
-328 408 -317 412 12 4 61 10 103 13 14 1 34 -18 65 -61z m2711 44 c4 -3 -43
-67 -105 -142 -61 -74 -124 -152 -141 -173 -16 -21 -39 -48 -50 -61 -11 -12
-28 -32 -37 -44 -22 -26 -26 -26 -61 2 l-29 22 48 65 c27 36 64 88 83 115 19
28 48 68 63 90 16 22 45 64 64 93 l35 53 62 -7 c34 -3 65 -9 68 -13z m-2970
-73 c31 -35 84 -97 119 -138 35 -41 67 -77 70 -80 3 -3 45 -51 94 -108 l89
-103 -30 -28 -31 -28 -273 273 -274 274 91 0 90 0 55 -62z m3020 -212 l-274
-274 -30 28 -31 28 90 104 c49 57 91 105 95 108 3 3 32 37 64 75 32 39 86 100
119 138 l60 67 90 0 91 0 -274 -274z m-3136 9 c245 -233 355 -340 355 -346 0
-4 -10 -20 -23 -34 l-22 -27 -255 210 -255 210 3 87 4 87 85 -83 c48 -46 96
-93 108 -104z m3485 98 l0 -88 -252 -208 -252 -208 -30 31 c-21 20 -27 33 -20
38 12 7 264 246 448 424 56 54 102 98 104 98 1 0 2 -39 2 -87z m-1505 -37
c176 -38 296 -80 440 -153 361 -184 644 -498 789 -873 114 -294 133 -680 48
-985 -80 -289 -224 -530 -444 -740 -99 -95 -120 -113 -195 -164 -236 -158
-418 -232 -698 -282 -161 -28 -456 -24 -610 10 -372 80 -668 247 -916 517
-234 254 -379 586 -409 934 -37 441 91 841 380 1185 237 282 581 481 960 554
142 28 169 29 365 26 136 -3 194 -9 290 -29z m-2173 -186 c2 -5 39 -36 83 -69
44 -33 89 -67 100 -75 11 -9 73 -57 138 -108 64 -50 117 -94 117 -97 0 -3 -10
-19 -23 -35 l-23 -28 -204 137 c-113 75 -210 141 -215 145 -7 6 -8 30 -1 74 9
61 19 81 28 56z m3704 -55 c11 -76 40 -48 -233 -231 l-187 -126 -23 28 c-13
16 -23 32 -23 35 0 6 225 185 313 249 26 19 67 52 90 72 23 21 44 38 47 38 3
0 10 -29 16 -65z m-3645 -251 c57 -37 140 -89 184 -117 44 -28 84 -54 88 -58
11 -8 -20 -69 -34 -69 -6 0 -47 20 -91 45 -44 25 -82 45 -84 45 -3 0 -183 98
-211 115 -5 3 31 105 37 105 4 0 53 -30 111 -66z m3692 14 c9 -29 15 -53 14
-53 -9 -6 -149 -82 -222 -121 -49 -26 -103 -56 -120 -66 -16 -10 -36 -18 -42
-18 -16 0 -47 60 -36 70 14 13 376 240 383 240 3 0 14 -23 23 -52z m-3688
-244 c94 -46 174 -90 178 -97 5 -7 4 -25 -2 -41 -10 -24 -15 -27 -37 -22 -57
15 -349 146 -352 158 -3 17 25 88 36 88 4 0 84 -39 177 -86z m3746 59 c23 -59
18 -72 -36 -95 -27 -12 -101 -43 -163 -70 -140 -61 -159 -63 -176 -22 l-14 31
177 91 c97 50 182 91 189 91 7 1 17 -11 23 -26z m-3953 -182 c26 -11 79 -32
117 -47 169 -64 200 -77 207 -83 4 -3 0 -21 -7 -39 -13 -29 -18 -32 -42 -26
-46 11 -364 111 -369 117 -5 5 37 97 44 97 2 0 24 -9 50 -19z m4040 -26 c12
-25 22 -47 22 -49 0 -6 -322 -109 -376 -120 -28 -6 -31 -4 -41 29 -11 34 -10
37 15 47 60 24 180 70 227 88 28 10 66 25 85 34 19 8 37 15 41 16 3 0 15 -20
27 -45z m-3958 -208 c194 -56 200 -59 181 -109 l-10 -26 -138 29 c-173 35
-283 59 -306 66 -16 4 -15 9 10 54 31 58 3 60 263 -14z m4042 46 c9 -10 23
-32 32 -50 19 -38 33 -32 -149 -68 -71 -14 -159 -33 -195 -41 -36 -8 -75 -17
-86 -19 -18 -4 -23 2 -32 36 -7 30 -7 41 1 44 32 10 403 114 408 114 3 1 13
-7 21 -16z m-4157 -219 c110 -20 216 -40 235 -43 33 -6 35 -8 32 -41 -2 -19
-6 -37 -7 -39 -8 -8 -563 53 -573 63 -2 3 12 28 33 56 29 39 41 49 58 45 12
-2 112 -21 222 -41z m4310 -4 c21 -28 35 -53 33 -56 -10 -10 -565 -71 -573
-63 -1 2 -5 20 -7 39 -3 33 -1 35 37 42 22 4 135 25 250 47 116 22 213 40 217
40 3 1 23 -22 43 -49z m-4560 -170 c44 -5 174 -17 290 -25 115 -9 210 -17 211
-18 1 -1 -1 -19 -4 -39 l-4 -38 -287 0 c-157 0 -330 3 -383 7 l-97 6 52 58
c48 54 55 58 97 58 25 1 81 -3 125 -9z m4749 -49 c54 -54 56 -59 34 -63 -12
-2 -185 -5 -384 -7 l-361 -3 -6 38 c-4 21 -5 39 -4 40 1 2 99 10 217 19 118 9
242 20 275 25 33 4 85 8 115 9 55 1 56 0 114 -58z m-4251 -198 c2 -21 2 -41
-2 -44 -3 -4 -87 -12 -186 -18 -99 -7 -245 -19 -325 -27 l-145 -14 -63 63 -63
62 258 5 c142 3 317 7 389 8 l132 2 5 -37z m4110 27 l207 0 -62 -65 -63 -66
-145 15 c-80 8 -226 20 -325 27 -99 6 -183 15 -187 18 -4 4 -5 24 -1 45 l6 39
181 -7 c100 -3 274 -6 389 -6z m-4091 -199 l3 -39 -145 -27 c-80 -15 -172 -33
-205 -40 -94 -21 -175 -29 -175 -18 0 6 -13 27 -30 48 -16 21 -30 41 -30 45 0
8 109 22 360 46 91 9 167 18 169 20 2 2 14 4 27 4 18 0 23 -6 26 -39z m3771 9
c267 -27 307 -32 307 -40 0 -4 -17 -28 -37 -54 -42 -54 -38 -53 -198 -21 -38
8 -134 26 -213 41 -113 21 -142 30 -137 41 3 8 5 26 5 40 0 24 2 25 40 19 22
-3 127 -15 233 -26z m-3743 -166 c17 -43 12 -53 -32 -64 -24 -6 -113 -31 -198
-56 -86 -24 -163 -44 -172 -44 -14 0 -76 87 -66 94 3 2 51 13 303 66 50 10 99
21 110 23 39 9 46 7 55 -19z m3605 -4 c50 -10 137 -29 195 -41 58 -12 106 -23
108 -24 9 -6 -53 -95 -66 -95 -9 0 -86 20 -172 44 -85 25 -174 50 -197 56 -44
11 -49 20 -36 68 7 27 4 27 168 -8z m-3549 -166 c8 -20 14 -37 12 -39 -6 -6
-344 -137 -363 -142 -16 -4 -25 5 -44 42 -13 25 -21 48 -20 49 2 2 45 15 94
30 170 52 210 65 255 80 25 8 46 15 48 15 2 1 10 -15 18 -35z m3494 -12 c36
-11 106 -32 155 -48 50 -15 92 -28 94 -30 1 -1 -7 -24 -20 -49 -19 -37 -27
-46 -44 -42 -21 5 -358 136 -363 142 -2 1 4 19 12 39 l15 35 43 -13 c24 -8 72
-23 108 -34z m-3427 -147 c15 -32 15 -35 -1 -44 -175 -91 -356 -180 -362 -176
-8 5 -35 94 -29 98 2 2 33 16 69 31 36 15 74 32 85 37 40 18 210 88 216 89 3
0 13 -16 22 -35z m3309 -4 c167 -69 273 -114 277 -117 6 -5 -21 -94 -30 -99
-5 -4 -321 150 -371 181 -6 4 20 74 28 74 1 0 44 -17 96 -39z m-3212 -172 c0
-5 -46 -39 -102 -75 -57 -36 -115 -74 -130 -85 -15 -10 -29 -19 -32 -19 -3 0
-34 -18 -68 -41 l-63 -40 -13 43 c-7 24 -13 49 -15 56 -1 8 73 55 188 117
l190 104 23 -25 c12 -14 22 -29 22 -35z m3225 -39 c44 -24 108 -58 141 -76
l61 -34 -15 -55 -15 -54 -36 20 c-104 58 -354 222 -358 235 -2 6 6 23 18 38
l21 26 51 -29 c29 -15 88 -48 132 -71z m-3140 -79 l15 -30 -151 -118 c-83 -65
-184 -144 -224 -175 -40 -32 -75 -58 -78 -58 -2 0 -7 23 -11 50 -4 28 -9 56
-11 63 -3 6 21 30 53 51 235 161 367 246 378 246 7 0 20 -13 29 -29z m3035
-82 c91 -60 185 -124 210 -141 l46 -30 -10 -61 c-5 -34 -11 -64 -12 -66 -2 -2
-65 45 -141 105 -76 59 -173 134 -215 166 -101 78 -103 81 -83 112 10 14 23
26 29 26 7 0 86 -50 176 -111z m-2928 -46 l28 -27 -54 -50 c-29 -28 -125 -118
-212 -201 -262 -249 -289 -274 -291 -272 -1 1 -3 40 -4 85 l-2 83 249 204
c137 113 251 205 253 205 3 0 18 -12 33 -27z m2768 -68 c63 -53 174 -144 247
-203 l132 -107 1 -89 0 -89 -47 44 c-27 23 -127 118 -223 210 -96 91 -201 190
-233 220 l-57 53 27 28 c15 15 29 28 32 28 3 0 58 -43 121 -95z m-2647 -50
c31 -27 29 -33 -14 -80 -15 -16 -62 -70 -105 -120 -42 -49 -101 -117 -129
-150 -29 -33 -70 -81 -91 -106 -56 -67 -62 -69 -154 -62 l-80 6 267 268 c148
147 270 268 273 268 3 0 18 -11 33 -24z m2673 -242 l263 -268 -80 -8 c-61 -6
-82 -5 -92 5 -7 7 -39 45 -72 83 -33 39 -63 72 -66 75 -3 3 -34 39 -69 80 -35
41 -67 77 -70 80 -13 13 -127 146 -134 157 -6 11 37 61 53 63 2 0 122 -120
267 -267z m-2506 110 c0 -2 -19 -30 -43 -61 -23 -31 -50 -68 -59 -82 -32 -47
-143 -206 -168 -239 -25 -33 -25 -33 -89 -27 -35 3 -66 7 -68 10 -3 2 77 103
177 224 l182 220 34 -20 c19 -11 34 -22 34 -25z m2206 -74 c55 -67 104 -127
109 -133 47 -51 156 -188 152 -192 -2 -2 -33 -7 -69 -11 l-64 -6 -40 54 c-21
29 -59 83 -84 120 -25 36 -73 106 -108 154 -35 48 -61 90 -58 93 5 4 54 37 62
41 1 1 46 -54 100 -120z m-2096 6 c17 -9 30 -20 30 -25 0 -5 -28 -59 -62 -120
-35 -61 -72 -127 -84 -148 -11 -20 -30 -53 -42 -73 l-23 -37 -50 13 c-28 8
-53 16 -56 19 -5 5 245 386 253 386 3 0 18 -7 34 -15z m1985 -176 c94 -141
124 -193 115 -199 -21 -13 -102 -22 -110 -13 -4 4 -19 28 -32 53 -14 25 -57
102 -96 172 -40 71 -72 132 -72 138 0 9 46 39 61 40 4 0 64 -86 134 -191z
m-1831 94 l35 -16 -19 -46 c-22 -57 -138 -312 -144 -318 -2 -2 -26 3 -54 12
l-51 17 62 116 c33 65 74 140 89 167 16 28 31 58 34 68 8 21 6 21 48 0z m1560
0 c3 -10 21 -45 39 -78 18 -33 58 -108 89 -167 l57 -106 -49 -16 c-27 -9 -52
-16 -55 -16 -3 0 -15 21 -27 48 -11 26 -28 65 -38 87 -110 250 -105 230 -67
249 41 20 43 20 51 -1z m-1397 -65 c15 -7 30 -13 32 -15 2 -1 -24 -88 -59
-193 -42 -128 -67 -190 -77 -190 -20 0 -94 39 -90 48 8 14 36 78 62 142 14 36
40 100 57 143 17 42 34 77 39 77 4 0 21 -5 36 -12z m1268 -85 c21 -54 41 -102
45 -108 4 -5 13 -28 20 -50 7 -22 21 -57 32 -78 l19 -38 -43 -19 c-24 -11 -48
-20 -54 -20 -10 0 -134 353 -134 379 0 9 43 29 66 30 6 1 28 -43 49 -96z
m-1087 32 c16 -5 21 -12 17 -28 -3 -12 -19 -85 -35 -162 -17 -77 -37 -170 -46
-207 l-16 -67 -39 24 c-21 14 -43 25 -49 25 -15 0 -12 22 9 92 11 35 32 104
46 153 54 182 56 186 73 181 10 -2 27 -7 40 -11z m895 -32 c8 -27 26 -86 40
-133 75 -254 75 -250 54 -250 -7 0 -29 -11 -49 -25 l-36 -25 -21 93 c-12 50
-28 117 -36 147 -7 30 -19 84 -25 120 -6 36 -13 73 -16 82 -4 13 4 20 28 27
18 5 36 10 40 10 3 1 13 -20 21 -46z m-704 -8 c2 -2 -4 -59 -13 -127 -16 -123
-46 -397 -46 -425 0 -9 -19 -1 -58 27 l-59 41 17 87 c10 48 30 152 45 232 36
197 30 183 73 175 21 -4 39 -8 41 -10z m525 -7 c16 -76 39 -198 57 -298 11
-63 24 -129 28 -147 9 -30 7 -33 -50 -73 -32 -23 -59 -37 -59 -33 0 22 -41
395 -50 453 -14 97 -13 108 13 113 47 9 57 7 61 -15z m-354 -246 c-1 -136 -4
-307 -7 -380 l-6 -132 -60 59 -60 59 12 148 c6 82 19 227 28 322 l17 172 38 0
39 0 -1 -248z m193 71 c9 -98 22 -242 28 -321 l12 -143 -60 -59 -60 -59 -6
106 c-4 58 -7 229 -7 380 l0 273 38 0 38 0 17 -177z"/>
<path d="M2732 4211 c-46 -29 -72 -77 -72 -132 0 -40 6 -53 39 -90 38 -43 40
-44 102 -44 52 0 70 4 97 24 17 14 32 28 32 33 0 13 -37 9 -74 -8 -22 -11 -45
-14 -68 -10 -111 21 -112 181 -1 202 34 6 93 -11 93 -27 0 -5 15 -9 32 -9 l33
0 -37 37 c-31 31 -44 37 -90 40 -41 3 -60 -1 -86 -16z"/>
<path d="M2435 4193 c-16 -3 -33 -8 -37 -11 -3 -4 2 -54 12 -112 26 -151 29
-160 52 -160 18 0 19 5 13 43 -3 23 -9 50 -11 60 -8 27 3 21 61 -34 43 -40 58
-49 75 -44 21 7 20 9 -21 51 -36 37 -41 46 -29 54 8 5 18 10 22 10 15 0 29 67
19 93 -19 50 -61 63 -156 50z"/>
<path d="M3062 4160 c-35 -22 -72 -88 -72 -130 0 -14 10 -43 23 -64 70 -123
255 -88 274 53 7 50 -16 107 -55 136 -39 29 -128 32 -170 5z m132 -31 c16 -8
32 -28 42 -54 15 -40 15 -45 -2 -80 -47 -100 -195 -70 -194 40 1 80 79 128
154 94z"/>
<path d="M2145 4096 c-17 -12 -17 -24 -11 -157 4 -79 9 -145 10 -147 2 -1 11
0 20 4 11 4 16 19 16 53 0 46 1 46 51 68 l51 22 32 -35 c28 -31 33 -33 51 -21
17 14 13 20 -73 104 -135 132 -125 125 -147 109z"/>
<path d="M3365 4092 c-5 -15 17 -42 36 -42 3 0 -9 -30 -29 -67 -19 -38 -43
-87 -53 -110 -18 -42 -18 -43 1 -53 16 -9 24 2 71 100 29 61 58 110 64 110 6
0 17 -6 23 -12 10 -10 15 -10 22 2 14 23 13 25 -27 44 -91 44 -101 47 -108 28z"/>
<path d="M1895 3970 c-7 -11 -1 -23 26 -55 45 -51 88 -110 84 -113 -2 -3 -17
0 -32 6 -174 64 -197 71 -215 58 -17 -12 -15 -17 29 -74 27 -34 65 -84 87
-112 37 -50 58 -59 64 -28 2 8 -24 48 -57 89 -32 41 -58 75 -57 77 2 1 54 -16
116 -38 109 -39 158 -44 147 -15 -11 27 -162 215 -174 215 -6 0 -15 -4 -18
-10z"/>
<path d="M3623 3865 c-80 -48 -94 -152 -29 -222 28 -31 40 -37 88 -41 31 -2
58 0 61 5 7 11 -24 28 -66 38 -78 16 -103 106 -48 167 25 28 36 33 74 33 49 0
97 -32 97 -65 0 -19 28 -60 41 -60 16 0 9 64 -11 98 -44 72 -131 92 -207 47z"/>
<path d="M2685 3863 c-122 -8 -312 -51 -375 -83 -8 -5 -53 -27 -99 -50 -257
-127 -472 -371 -570 -651 -81 -229 -82 -524 -2 -750 149 -420 523 -720 970
-780 129 -18 334 -6 454 26 228 59 392 151 553 310 106 105 165 186 227 310
81 165 117 318 117 501 0 281 -83 516 -259 734 -173 213 -461 381 -721 419
-82 12 -230 19 -295 14z m257 -58 c416 -55 779 -352 914 -749 72 -212 74 -509
3 -703 -46 -127 -105 -235 -177 -326 -160 -200 -371 -338 -627 -407 -100 -27
-351 -38 -465 -21 -483 74 -869 449 -951 921 -16 95 -16 261 0 365 43 270 214
546 439 708 259 187 540 256 864 212z"/>
<path d="M2375 3616 c-93 -30 -145 -75 -145 -127 0 -34 8 -36 41 -10 13 10 43
28 67 40 45 23 122 87 122 102 0 12 -37 10 -85 -5z"/>
<path d="M3080 3621 c0 -17 66 -73 115 -98 27 -14 62 -35 77 -46 34 -25 42
-19 34 28 -5 26 -18 43 -48 65 -57 42 -178 76 -178 51z"/>
<path d="M2476 3579 c-15 -11 -36 -38 -46 -60 l-20 -39 23 0 c42 0 137 38 179
72 41 32 41 33 17 39 -54 15 -126 10 -153 -12z"/>
<path d="M2911 3591 c-24 -6 -24 -7 17 -39 42 -34 137 -72 179 -72 l24 0 -23
41 c-34 62 -62 79 -122 78 -28 -1 -62 -4 -75 -8z"/>
<path d="M2380 3438 c-18 -13 -40 -33 -48 -45 l-14 -23 91 0 c90 0 133 10 175
43 19 14 19 15 -12 31 -48 25 -151 22 -192 -6z"/>
<path d="M2966 3443 l-30 -16 28 -22 c36 -29 67 -35 172 -35 l84 0 -16 25
c-29 45 -75 65 -145 65 -39 -1 -76 -7 -93 -17z"/>
<path d="M2055 3423 c-39 -21 -76 -58 -119 -120 -57 -83 -57 -95 3 -150 28
-26 51 -51 51 -56 0 -5 -7 -3 -17 4 -15 13 -16 11 -9 -16 10 -42 26 -55 26
-22 0 15 3 27 8 27 4 0 29 -25 55 -55 27 -31 57 -55 68 -55 14 0 31 23 64 90
25 49 45 96 45 104 0 8 -20 38 -45 67 -49 58 -85 126 -85 163 0 33 -9 37 -45
19z m35 -28 c0 -36 35 -101 86 -162 24 -28 44 -56 44 -61 0 -17 -91 -182 -100
-182 -10 0 -200 193 -213 216 -11 19 33 92 97 159 57 61 86 70 86 30z"/>
<path d="M3446 3428 c-2 -7 -9 -34 -16 -60 -8 -29 -32 -71 -66 -114 -30 -37
-54 -75 -54 -83 0 -9 20 -54 44 -101 29 -57 50 -86 63 -88 13 -2 36 15 69 52
27 31 52 56 57 56 4 0 7 -12 7 -27 0 -33 16 -20 26 22 7 27 6 29 -9 16 -32
-26 -17 5 19 38 68 64 69 72 33 136 -37 66 -92 126 -137 149 -25 13 -33 14
-36 4z m68 -39 c45 -39 116 -145 116 -172 0 -24 -187 -222 -209 -222 -12 0
-101 155 -101 177 0 5 20 33 44 61 51 61 86 126 86 162 0 34 21 32 64 -6z"/>
<path d="M2239 3341 c-42 -13 -69 -31 -69 -46 0 -8 14 -30 31 -50 l32 -36 31
33 c18 18 49 46 69 61 20 15 37 32 37 37 0 12 -94 12 -131 1z"/>
<path d="M3170 3342 c0 -5 17 -24 38 -41 20 -17 51 -44 68 -62 l30 -31 32 37
c40 45 40 60 0 81 -38 20 -168 32 -168 16z"/>
<path d="M2317 3233 c-13 -13 -7 -644 7 -708 37 -175 184 -327 357 -369 81
-20 97 -20 178 0 160 39 286 158 343 323 22 64 23 78 23 411 l0 345 -451 3
c-248 1 -454 -1 -457 -5z m473 -78 c11 -33 14 -35 56 -35 53 0 56 -11 10 -38
-34 -20 -34 -22 -24 -56 11 -34 14 -36 53 -36 40 0 42 1 54 42 l13 42 14 -24
c7 -14 13 -33 14 -42 0 -15 9 -18 53 -18 l52 -1 -38 -32 c-35 -30 -37 -35 -28
-61 6 -15 11 -34 11 -43 0 -14 -2 -14 -22 1 -52 37 -56 37 -84 13 -22 -19 -25
-28 -19 -55 6 -31 9 -32 56 -32 27 0 49 -3 49 -7 0 -5 -16 -18 -36 -31 -28
-18 -35 -28 -30 -45 3 -12 9 -33 12 -46 l7 -23 -39 25 -39 24 -35 -23 c-36
-25 -49 -19 -31 15 18 33 12 56 -19 74 -29 17 -31 17 -60 0 -32 -18 -36 -35
-20 -79 6 -15 9 -28 7 -30 -2 -2 -20 8 -40 22 l-37 25 -37 -28 -36 -28 7 30
c4 17 9 38 12 47 3 12 -6 24 -30 40 -20 13 -36 26 -36 30 0 4 21 8 47 10 42 3
49 6 58 32 8 25 6 31 -18 52 -30 25 -33 25 -86 -13 l-24 -18 6 30 c3 17 9 38
12 47 5 12 -3 23 -29 40 -20 13 -36 26 -36 31 0 4 20 7 45 7 42 0 45 2 63 43
l19 42 12 -42 c12 -42 13 -43 55 -43 40 0 43 2 54 36 10 34 10 36 -24 56 -46
27 -43 38 11 38 43 0 45 1 56 40 14 45 23 44 39 -5z m-376 -473 c20 -40 89
-106 141 -136 123 -73 307 -73 430 0 52 30 121 96 141 136 8 15 17 28 21 28 3
0 3 -31 1 -69 -6 -85 -35 -148 -100 -217 -221 -234 -633 -98 -656 216 -2 39
-2 70 1 70 4 0 13 -13 21 -28z"/>
<path d="M2702 2978 c-70 -49 -71 -54 -39 -143 l22 -60 85 0 85 0 22 60 c33
90 31 94 -41 143 -35 23 -66 42 -68 42 -2 0 -32 -19 -66 -42z"/>
<path d="M1827 3108 c-32 -42 -47 -97 -47 -171 0 -57 24 -132 40 -122 4 2 17
33 30 67 18 49 23 82 22 152 -1 49 -5 93 -10 98 -6 6 -19 -3 -35 -24z"/>
<path d="M3676 3131 c-5 -7 -9 -52 -10 -99 -1 -69 4 -100 23 -149 13 -35 27
-63 32 -63 33 0 50 128 28 215 -13 51 -62 115 -73 96z"/>
<path d="M3450 2920 c0 -34 27 -77 63 -99 18 -11 42 -30 52 -41 38 -42 49 40
13 97 -33 55 -128 86 -128 43z"/>
<path d="M1760 2816 c-20 -53 -12 -137 19 -201 15 -33 38 -69 51 -80 l22 -20
-4 90 c-3 72 -9 103 -32 155 -38 83 -43 89 -56 56z"/>
<path d="M3738 2788 c-40 -84 -48 -116 -48 -197 l1 -76 28 31 c46 51 74 137
68 212 -7 87 -19 95 -49 30z"/>
<path d="M1979 2761 c-46 -46 -52 -91 -18 -151 l22 -39 40 76 c37 72 38 79 28
115 -7 21 -17 38 -23 38 -6 0 -28 -17 -49 -39z"/>
<path d="M3489 2762 c-10 -35 -8 -44 20 -98 47 -91 45 -90 70 -51 35 57 22
121 -35 166 -36 29 -41 27 -55 -17z"/>
<path d="M1873 2635 c-4 -17 -8 -56 -8 -87 1 -49 6 -64 38 -111 20 -29 48 -64
61 -76 l24 -23 -3 39 c-3 21 -6 64 -9 95 -4 55 -27 106 -75 168 l-19 25 -9
-30z"/>
<path d="M3638 2643 c-48 -57 -70 -116 -78 -207 -4 -50 -6 -92 -5 -94 2 -2 26
25 54 59 57 71 74 126 62 202 -9 57 -13 62 -33 40z"/>
<path d="M3486 2593 c-33 -45 -66 -117 -66 -145 0 -28 39 -118 51 -118 12 0
26 24 54 90 25 60 26 69 16 116 -7 28 -17 58 -24 67 -11 14 -14 13 -31 -10z"/>
<path d="M2005 2558 c-8 -28 -15 -58 -15 -65 0 -22 62 -163 72 -163 13 0 47
61 54 95 9 48 -55 185 -86 185 -5 0 -16 -23 -25 -52z"/>
<path d="M1830 2306 c0 -1 5 -18 12 -37 19 -57 65 -123 103 -148 33 -22 41
-23 118 -17 80 7 215 31 225 40 6 7 -20 47 -50 78 -13 13 -30 33 -38 46 -14
20 -18 21 -55 11 -54 -15 -219 -6 -267 15 -38 16 -48 19 -48 12z m246 -44
l111 3 47 -55 c53 -62 53 -63 -49 -79 -162 -25 -197 -25 -234 1 -33 22 -101
120 -101 144 0 8 17 7 58 -3 36 -9 97 -13 168 -11z"/>
<path d="M3660 2293 c-45 -20 -212 -29 -265 -14 -37 10 -41 9 -55 -11 -8 -13
-32 -41 -52 -63 -21 -22 -38 -45 -38 -51 0 -19 179 -53 278 -54 36 0 49 6 85
39 40 37 76 95 92 149 8 26 2 27 -45 5z m30 -16 c0 -25 -83 -138 -112 -153
-32 -17 -76 -15 -223 8 -104 15 -104 17 -49 79 l48 54 110 -3 c92 -2 183 9
224 27 1 1 2 -5 2 -12z"/>
<path d="M2524 2125 c-3 -8 -1 -29 5 -46 15 -44 14 -46 -12 -21 -13 13 -43 25
-70 28 -42 6 -47 5 -47 -13 0 -20 60 -83 97 -102 21 -11 73 -15 73 -7 0 3 -5
17 -11 32 l-10 28 21 -19 c21 -19 23 -19 35 -2 6 9 16 17 20 17 5 0 -1 -11
-13 -23 -35 -37 -44 -83 -26 -126 10 -24 11 -32 3 -23 -7 6 -17 12 -21 12 -15
0 -138 -129 -138 -145 0 -16 30 -35 54 -35 9 0 19 12 22 28 9 32 50 89 76 103
18 10 18 9 3 -28 -9 -21 -23 -48 -31 -60 -7 -12 -14 -27 -14 -33 0 -11 69 -14
86 -2 13 8 38 107 31 119 -5 9 38 13 118 12 86 -1 113 -4 108 -12 -7 -12 18
-111 31 -119 15 -10 86 -10 86 0 0 5 -14 34 -31 66 -17 31 -29 60 -25 63 10
10 75 -68 87 -104 11 -34 27 -40 60 -23 31 17 23 36 -46 105 -68 68 -74 72
-93 53 -8 -8 -8 -2 0 24 14 46 3 105 -22 121 -11 6 -20 16 -20 21 0 5 9 1 20
-9 19 -17 21 -17 41 0 20 19 20 19 10 -9 -6 -15 -11 -29 -11 -32 0 -10 53 -3
79 10 35 19 91 81 91 103 0 24 -84 12 -116 -18 -27 -26 -27 -26 -15 19 12 40
5 62 -19 62 -28 0 -77 -47 -91 -85 -12 -31 -15 -33 -43 -27 -40 9 -132 9 -173
0 -30 -7 -32 -5 -43 27 -20 61 -101 110 -116 70z"/>
<path d="M3895 3635 c-27 -26 -31 -51 -14 -89 24 -53 -16 -100 -64 -75 -16 9
-18 18 -13 49 7 44 -8 61 -32 36 -26 -25 -19 -86 13 -113 34 -30 76 -29 113 2
38 32 43 52 25 104 -17 51 -5 74 36 69 23 -3 26 -8 26 -40 1 -46 12 -59 31
-34 54 75 -55 157 -121 91z"/>
<path d="M1426 3484 c-4 -9 -5 -17 -4 -18 7 -3 50 -29 141 -86 54 -34 100 -60
101 -59 22 29 66 100 66 107 0 26 -30 18 -52 -14 -12 -18 -27 -34 -31 -34 -4
0 -38 19 -75 43 -136 88 -136 88 -146 61z"/>
<path d="M4100 3301 c-41 -16 -96 -37 -122 -46 -27 -10 -48 -24 -48 -31 0 -46
61 -124 97 -124 33 0 80 26 87 48 5 14 14 17 36 14 21 -3 35 3 55 23 23 22 26
32 20 61 -8 48 -26 84 -39 84 -6 -1 -45 -14 -86 -29z"/>
<path d="M1320 3271 c-9 -17 5 -33 102 -120 106 -95 139 -112 124 -63 -4 11
-18 27 -31 36 -24 15 -24 17 -9 58 21 60 32 70 76 66 36 -2 57 10 58 35 0 4
-70 7 -155 7 -142 0 -155 -2 -165 -19z"/>
<path d="M4143 3071 c-100 -21 -133 -46 -133 -101 0 -47 37 -90 77 -90 29 0
183 25 214 35 20 7 23 14 11 32 -5 8 -34 6 -112 -8 -118 -22 -150 -17 -150 25
0 36 23 49 134 71 74 15 101 24 101 35 0 21 -45 22 -142 1z"/>
<path d="M1256 3013 c-17 -18 -27 -44 -32 -80 -3 -30 -4 -56 -2 -59 3 -2 65
-14 137 -26 112 -19 134 -20 141 -8 13 22 3 29 -50 36 -28 4 -50 10 -50 14 0
4 29 21 65 39 49 23 65 36 65 52 0 23 -19 20 -80 -12 l-35 -19 -8 29 c-16 64
-105 84 -151 34z"/>
<path d="M4042 2808 c3 -22 7 -23 66 -20 34 2 62 2 62 -1 0 -3 -29 -26 -65
-52 -50 -36 -65 -52 -65 -71 0 -28 4 -27 63 20 l39 31 26 -32 c33 -38 62 -48
106 -33 42 13 56 44 56 120 l0 60 -146 0 c-145 0 -145 0 -142 -22z"/>
<path d="M1210 2725 c0 -68 2 -75 20 -75 15 0 20 7 20 25 l0 25 125 0 c118 0
125 1 125 20 0 18 -7 20 -72 21 -40 1 -81 0 -92 -1 -10 -1 -34 1 -52 5 -28 5
-34 11 -34 30 0 18 -5 25 -20 25 -18 0 -20 -7 -20 -75z"/>
<path d="M1370 2599 c-120 -20 -160 -31 -160 -44 0 -22 11 -23 90 -9 130 23
131 22 31 -63 -64 -56 -90 -85 -90 -102 -1 -23 1 -24 57 -17 31 4 96 14 145
23 73 13 87 19 87 34 0 21 -17 24 -70 10 -19 -5 -60 -12 -90 -16 l-55 -6 36
33 c19 18 61 56 92 84 90 81 74 97 -73 73z"/>
<path d="M4036 2563 c-2 -10 -7 -41 -11 -69 -5 -42 -4 -52 10 -57 17 -7 18 -5
31 58 8 37 11 40 39 36 45 -5 48 -9 41 -62 -6 -44 -5 -49 13 -49 15 0 21 10
28 48 5 27 13 47 21 46 6 -1 25 -2 41 -2 l30 -2 -6 -55 c-5 -50 -4 -55 14 -55
18 0 22 9 28 66 4 36 3 70 -2 74 -6 6 -233 40 -265 40 -4 0 -9 -8 -12 -17z"/>
<path d="M4007 2403 c-14 -14 -6 -34 25 -62 l32 -28 -16 -49 c-15 -48 -16 -49
-59 -52 -40 -3 -58 -14 -59 -34 0 -9 255 -11 287 -2 38 10 34 39 -11 75 -22
19 -73 62 -113 97 -77 66 -76 66 -86 55z"/>
<path d="M1513 2363 c-9 -3 -8 -17 6 -53 l18 -48 -39 -15 c-43 -18 -36 -24
-68 58 -5 14 -14 25 -20 25 -19 0 -21 -25 -6 -67 l15 -42 -34 -11 c-43 -14
-51 -9 -66 41 -9 27 -17 39 -28 37 -9 -2 -15 -12 -14 -23 1 -16 31 -111 37
-122 2 -2 269 87 274 91 5 6 -46 130 -54 132 -5 1 -14 0 -21 -3z"/>
<path d="M1540 2152 c0 -12 34 -42 47 -42 5 0 20 -11 33 -25 50 -53 20 -143
-55 -163 -70 -20 -141 36 -131 103 2 17 -2 39 -10 49 -13 18 -14 17 -25 -10
-22 -58 4 -136 57 -171 32 -21 108 -23 152 -4 40 17 82 84 82 132 0 63 -71
139 -130 139 -11 0 -20 -4 -20 -8z"/>
<path d="M3878 2093 c-26 -27 -32 -46 -29 -89 1 -21 72 -75 176 -133 37 -21
40 -22 52 -5 11 16 2 23 -87 77 -81 48 -100 63 -100 82 0 51 56 68 100 31 8
-7 45 -29 81 -49 50 -27 69 -33 77 -25 7 7 12 15 12 19 0 14 -201 119 -228
119 -18 0 -38 -10 -54 -27z"/>
<path d="M3610 1771 l-55 -48 47 -54 c26 -30 69 -78 95 -107 l48 -54 54 49
c45 41 53 52 44 67 -8 15 -12 16 -24 4 -8 -7 -27 -24 -41 -37 l-27 -23 -25 27
c-14 15 -26 31 -26 34 0 3 16 20 37 37 22 18 33 35 29 42 -11 18 -22 15 -61
-19 l-35 -31 -30 29 -31 30 42 38 c36 32 39 39 27 51 -12 12 -22 7 -68 -35z"/>
<path d="M1842 1757 c-26 -28 -28 -64 -5 -111 30 -64 -18 -115 -61 -67 -11 12
-15 27 -12 39 4 11 0 24 -8 31 -12 10 -17 8 -25 -8 -6 -11 -11 -29 -11 -41 0
-28 52 -80 80 -80 35 0 79 31 90 64 9 26 7 38 -14 78 -20 38 -22 50 -12 63 7
10 22 15 37 13 19 -2 25 -10 29 -38 6 -42 35 -53 44 -16 18 74 -80 129 -132
73z"/>
<path d="M3462 1660 c-12 -5 -38 -20 -57 -33 l-35 -24 76 -116 c42 -65 82
-117 90 -117 27 0 25 23 -6 66 -18 25 -30 47 -28 50 3 2 33 -7 68 -21 75 -29
71 -29 95 -11 17 12 14 15 -43 36 l-61 22 21 28 c50 68 -37 155 -120 120z"/>
<path d="M2063 1503 c-58 -121 -62 -142 -30 -143 4 0 27 41 51 92 l43 92 11
-49 c6 -28 14 -79 18 -115 7 -71 18 -100 37 -100 16 0 130 238 123 256 -12 32
-33 9 -71 -75 -22 -49 -43 -87 -47 -83 -3 4 -12 56 -20 116 -11 90 -17 111
-34 122 -20 14 -23 9 -81 -113z"/>
<path d="M3211 1542 c-48 -24 -84 -94 -76 -146 13 -84 74 -131 162 -124 85 7
140 72 130 156 -8 76 -70 132 -147 132 -19 0 -51 -8 -69 -18z m107 -33 c41
-14 62 -49 62 -103 0 -37 -5 -48 -31 -70 -45 -38 -92 -35 -135 8 -27 27 -34
42 -34 73 0 43 23 77 60 92 33 13 41 13 78 0z"/>
<path d="M2382 1480 c-81 -49 -97 -165 -32 -230 57 -57 168 -53 217 9 41 52
35 64 -37 83 -89 23 -110 23 -110 -1 0 -16 11 -22 60 -32 58 -11 60 -13 44
-30 -44 -48 -144 -26 -164 37 -23 67 18 132 88 141 33 4 44 1 74 -26 20 -17
45 -31 56 -31 32 0 16 37 -31 71 -49 36 -115 39 -165 9z"/>
<path d="M2940 1471 c-23 -4 -34 -11 -33 -21 1 -8 11 -66 23 -129 11 -63 20
-118 20 -123 0 -4 9 -8 21 -8 20 0 21 4 14 60 -7 57 -6 60 15 60 52 0 89 38
90 92 0 65 -48 87 -150 69z"/>
<path d="M2714 1423 c-9 -21 -35 -84 -59 -140 -42 -101 -43 -103 -21 -103 17
0 28 11 41 40 18 40 19 40 72 40 54 0 55 0 71 -40 13 -30 23 -40 41 -40 18 0
22 4 16 18 -4 9 -18 44 -31 77 -66 172 -70 180 -92 183 -18 3 -26 -5 -38 -35z"/>
<path d="M7500 4330 c-169 -17 -355 -87 -504 -190 -41 -28 -114 -93 -163 -143
-139 -144 -211 -266 -270 -454 l-28 -88 0 -670 0 -670 23 -80 c135 -468 571
-805 1042 -805 543 0 996 413 1027 938 l6 92 -279 -2 -279 -3 -7 -67 c-22
-197 -158 -352 -355 -403 -216 -56 -439 49 -540 253 l-38 76 -3 640 c-3 574
-1 648 14 704 72 273 401 415 662 286 161 -79 262 -239 262 -416 l0 -58 280 0
280 0 0 74 c0 286 -141 575 -372 760 -211 169 -490 253 -758 226z"/>
<path d="M8990 2770 l0 -1520 280 0 280 0 2 995 3 994 470 -994 470 -994 278
-1 277 0 0 1520 0 1520 -280 0 -280 0 -2 -990 -3 -989 -469 989 -468 990 -279
0 -279 0 0 -1520z"/>
<path d="M11590 2770 l0 -1520 498 0 c275 0 534 5 578 10 221 28 388 104 524
239 167 166 241 367 241 656 0 207 -32 343 -111 476 -44 75 -154 184 -228 225
l-50 28 42 26 c106 68 196 203 238 357 31 114 31 352 0 476 -34 138 -84 229
-177 323 -67 69 -95 89 -175 127 -186 89 -259 97 -892 97 l-488 0 0 -1520z
m878 1040 c116 -12 179 -39 235 -99 64 -69 82 -129 81 -271 -3 -278 -107 -349
-511 -350 l-113 0 0 365 0 365 108 0 c59 0 149 -5 200 -10z m73 -1194 c213
-45 309 -187 309 -456 0 -210 -71 -352 -205 -411 -53 -24 -191 -39 -357 -39
l-128 0 0 460 0 460 158 0 c96 0 183 -6 223 -14z"/>
<path d="M14335 4255 c-58 -20 -119 -91 -147 -173 -21 -62 -23 -83 -23 -267 0
-182 2 -206 23 -260 26 -72 90 -138 148 -154 56 -16 143 -13 197 5 83 28 157
139 157 236 l0 28 -84 0 -83 0 -6 -42 c-11 -82 -87 -118 -134 -64 -38 44 -47
99 -48 271 0 167 8 210 46 259 20 26 58 34 94 20 20 -8 45 -56 45 -89 0 -25 1
-25 85 -25 l85 0 0 28 c0 98 -74 208 -155 231 -54 15 -151 13 -200 -4z"/>
<path d="M14850 3830 l0 -430 235 0 235 0 0 75 0 75 -150 0 -150 0 0 110 0
110 135 0 135 0 0 75 0 75 -135 0 -135 0 0 95 0 95 140 0 140 0 0 75 0 75
-225 0 -225 0 0 -430z"/>
<path d="M15480 3830 l0 -430 75 0 75 0 2 271 3 271 96 -268 97 -269 91 -3 91
-3 0 431 0 430 -75 0 -75 0 -2 -255 -3 -255 -95 255 -94 255 -93 0 -93 0 0
-430z"/>
<path d="M16160 4185 l0 -75 85 0 85 0 0 -355 0 -355 85 0 85 0 0 355 0 355
90 0 90 0 0 75 0 75 -260 0 -260 0 0 -75z"/>
<path d="M16840 3830 l0 -430 80 0 80 0 0 180 0 180 33 0 32 0 70 -178 71
-177 87 -3 c48 -1 87 0 87 3 0 3 -33 88 -74 189 l-73 183 45 34 c98 73 126
209 67 318 -59 108 -119 131 -347 131 l-158 0 0 -430z m289 292 c49 -24 74
-62 74 -112 0 -76 -65 -130 -155 -130 l-48 0 0 130 0 130 48 0 c26 0 62 -8 81
-18z"/>
<path d="M17660 4256 c0 -2 -43 -190 -95 -416 -52 -226 -95 -418 -95 -426 0
-11 18 -14 83 -14 l83 0 20 103 19 102 90 0 90 0 19 -102 20 -103 88 0 c64 0
88 3 88 13 0 6 -44 199 -98 427 l-97 415 -108 3 c-59 1 -107 1 -107 -2z m160
-483 c0 -9 -18 -13 -56 -13 -56 0 -56 0 -51 28 3 15 16 80 29 146 l23 119 27
-134 c15 -74 27 -140 28 -146z"/>
<path d="M18210 3830 l0 -430 220 0 c203 0 220 1 221 18 0 9 4 43 8 75 l7 57
-143 0 -143 0 0 355 0 355 -85 0 -85 0 0 -430z"/>
<path d="M16385 3188 c-75 -26 -133 -98 -162 -200 -20 -72 -28 -314 -14 -407
28 -181 110 -261 268 -261 130 0 227 80 248 205 4 22 9 48 12 58 4 15 -5 17
-81 17 -85 0 -86 0 -92 -27 -17 -80 -38 -103 -93 -103 -66 0 -95 88 -95 290 0
212 28 290 104 290 30 0 43 -6 59 -26 12 -15 21 -35 21 -45 0 -44 9 -49 91
-49 l79 0 0 33 c0 92 -48 174 -123 212 -41 20 -65 25 -121 24 -39 0 -84 -5
-101 -11z"/>
<path d="M17013 3176 c-86 -40 -131 -121 -153 -271 -27 -191 6 -410 75 -501
37 -48 97 -76 176 -82 86 -6 153 16 202 66 77 79 102 188 94 420 -4 129 -9
168 -27 221 -28 78 -86 141 -146 159 -69 20 -162 15 -221 -12z m181 -157 c36
-42 50 -140 43 -300 -7 -184 -33 -249 -102 -249 -78 0 -109 99 -103 329 3 136
7 161 26 198 35 66 91 76 136 22z"/>
<path d="M18634 3176 c-120 -56 -173 -216 -161 -485 9 -197 49 -295 140 -344
34 -18 58 -22 132 -22 80 0 95 3 137 28 70 41 105 100 122 205 l6 42 -84 0
-84 0 -11 -45 c-16 -62 -42 -87 -89 -83 -32 3 -40 9 -62 48 -23 42 -25 56 -28
206 -4 183 7 259 43 298 51 55 124 24 139 -59 l7 -35 84 0 84 0 -6 38 c-22
159 -100 232 -248 232 -53 0 -83 -6 -121 -24z"/>
<path d="M19286 3190 c-109 -33 -167 -144 -145 -278 14 -87 58 -134 189 -203
103 -53 140 -94 140 -155 0 -122 -151 -129 -181 -8 l-11 44 -85 0 -85 0 6 -47
c10 -71 50 -146 94 -176 106 -73 290 -59 374 30 42 44 58 94 58 180 0 133 -42
188 -208 276 -108 57 -127 76 -126 128 2 51 27 79 71 79 41 0 70 -27 79 -74
l6 -36 85 0 85 0 -7 48 c-14 97 -64 164 -144 191 -39 13 -152 13 -195 1z"/>
<path d="M14180 2760 l0 -430 80 0 80 0 1 268 c1 212 3 261 13 238 6 -17 49
-136 96 -265 l85 -236 93 -3 92 -3 0 431 0 430 -81 0 -80 0 3 -259 3 -259 -96
257 -95 256 -97 3 -97 3 0 -431z"/>
<path d="M15030 3186 c0 -3 -43 -189 -95 -414 -52 -225 -95 -417 -95 -426 0
-13 13 -16 83 -16 l83 0 20 103 19 102 90 0 90 0 19 -102 20 -103 88 0 c64 0
88 3 88 13 0 6 -44 199 -98 427 l-98 415 -107 3 c-59 1 -107 1 -107 -2z m160
-483 c0 -9 -18 -13 -56 -13 -56 0 -56 0 -51 28 3 15 16 80 29 146 l23 119 27
-134 c15 -74 27 -140 28 -146z"/>
<path d="M15550 2760 l0 -430 80 0 80 0 0 180 0 180 38 0 37 0 70 -180 70
-180 88 0 c48 0 87 1 87 3 0 2 -33 87 -74 189 l-73 187 41 29 c98 70 129 213
71 320 -59 109 -121 132 -352 132 l-163 0 0 -430z m294 296 c50 -21 76 -60 76
-116 0 -82 -58 -130 -160 -130 l-50 0 0 130 0 130 50 0 c28 0 65 -6 84 -14z"/>
<path d="M17490 3115 l0 -75 90 0 90 0 0 -355 0 -355 85 0 85 0 0 355 0 355
90 0 90 0 0 75 0 75 -265 0 -265 0 0 -75z"/>
<path d="M18140 2760 l0 -430 85 0 85 0 0 430 0 430 -85 0 -85 0 0 -430z"/>
<path d="M14180 1689 l0 -431 168 5 c95 3 183 10 204 17 96 33 151 119 152
234 0 91 -16 136 -63 179 -36 32 -37 35 -19 46 33 20 58 90 58 161 0 110 -52
183 -149 210 -20 5 -107 10 -193 10 l-158 0 0 -431z m307 267 c24 -21 28 -32
28 -76 0 -70 -24 -90 -106 -90 l-59 0 0 95 0 95 54 0 c44 0 61 -5 83 -24z
m-12 -320 c43 -18 58 -47 58 -113 0 -89 -37 -123 -134 -123 l-49 0 0 125 0
125 45 0 c25 0 61 -6 80 -14z"/>
<path d="M14820 1800 c0 -348 5 -397 51 -459 47 -66 96 -85 214 -86 88 0 106
3 150 26 60 30 100 89 115 168 5 29 10 193 10 362 l0 309 -85 0 -85 0 0 -302
c0 -167 -5 -321 -10 -343 -12 -51 -41 -75 -92 -75 -46 0 -82 32 -92 81 -3 18
-6 168 -6 335 l0 304 -85 0 -85 0 0 -320z"/>
<path d="M15510 1690 l0 -430 80 0 80 0 0 180 0 180 34 0 33 0 70 -177 70
-178 87 -3 c47 -1 86 1 86 6 0 4 -31 86 -70 182 -38 96 -70 179 -70 185 1 5
18 22 40 37 21 15 51 48 67 75 24 41 28 59 28 123 0 64 -4 82 -28 122 -15 26
-43 59 -62 74 -61 46 -97 53 -277 54 l-168 0 0 -430z m301 287 c123 -81 60
-237 -96 -237 l-45 0 0 130 0 130 54 0 c38 0 62 -6 87 -23z"/>
<path d="M16150 1690 l0 -430 235 0 235 0 0 75 0 75 -150 0 -150 0 0 115 0
115 135 0 135 0 0 75 0 75 -135 0 -135 0 0 90 0 90 140 0 140 0 0 75 0 75
-225 0 -225 0 0 -430z"/>
<path d="M16885 2108 c-5 -15 -195 -836 -195 -843 0 -3 38 -5 84 -5 97 0 86
-12 112 123 l17 87 88 0 88 0 11 -57 c7 -32 16 -79 22 -105 l10 -48 90 0 c80
0 89 2 84 18 -3 9 -44 184 -91 387 -47 204 -91 389 -97 413 l-10 42 -105 0
c-74 0 -105 -4 -108 -12z m134 -340 c13 -68 26 -129 29 -135 3 -10 -12 -13
-55 -13 l-59 0 25 135 c14 74 28 135 32 135 3 0 16 -55 28 -122z"/>
<path d="M17382 1768 c3 -341 4 -354 25 -394 49 -92 133 -131 267 -122 111 7
174 48 215 138 19 42 21 64 21 388 l0 342 -85 0 -85 0 0 -325 c0 -387 -2 -395
-91 -395 -41 0 -66 15 -84 50 -12 24 -15 83 -15 350 l0 320 -85 0 -86 0 3
-352z"/>
</g>
</svg>
