<?xml version="1.0" encoding="UTF-8"?>
<!DOCTYPE svg PUBLIC "-//W3C//DTD SVG 1.1//EN" "http://www.w3.org/Graphics/SVG/1.1/DTD/svg11.dtd">
<!-- Creator: CorelDRAW 2017 -->
<svg xmlns="http://www.w3.org/2000/svg" xml:space="preserve" width="8182px" height="2250px" version="1.1" style="shape-rendering:geometricPrecision; text-rendering:geometricPrecision; image-rendering:optimizeQuality; fill-rule:evenodd; clip-rule:evenodd"
viewBox="0 0 1878.65 516.53"
 xmlns:xlink="http://www.w3.org/1999/xlink">
 <defs>
  <style type="text/css">
   <![CDATA[
    .fil2 {fill:#FEFEFE}
    .fil3 {fill:#ED3237}
    .fil15 {fill:#F7F7F8}
    .fil17 {fill:#F3F4F4}
    .fil6 {fill:#F1F1F0}
    .fil5 {fill:#EEEEEE}
    .fil23 {fill:#E5E8EC}
    .fil25 {fill:#E2E3E6}
    .fil21 {fill:#DBE1E6}
    .fil22 {fill:#DBDDE5}
    .fil24 {fill:#D6DAE2}
    .fil26 {fill:#C6CAD4}
    .fil33 {fill:#BDC3D1}
    .fil32 {fill:#B9C2CA}
    .fil30 {fill:#B4BAC6}
    .fil29 {fill:#A4A4A7}
    .fil27 {fill:#939AAC}
    .fil28 {fill:#8B95A7}
    .fil34 {fill:#868685}
    .fil35 {fill:#7E7F7F}
    .fil37 {fill:#777777}
    .fil36 {fill:#7C87A2}
    .fil31 {fill:#7A8499}
    .fil20 {fill:#3E3E3E}
    .fil8 {fill:#343434}
    .fil10 {fill:#323131}
    .fil16 {fill:#2B2B2B}
    .fil19 {fill:#2D2D2D}
    .fil0 {fill:#282829}
    .fil11 {fill:#292929}
    .fil13 {fill:#535D79}
    .fil12 {fill:#4A5775}
    .fil18 {fill:#434D6C}
    .fil1 {fill:#324351}
    .fil7 {fill:#2A3040}
    .fil14 {fill:#3A4667}
    .fil4 {fill:#2C324F}
    .fil9 {fill:#323B60}
   ]]>
  </style>
 </defs>
 <g id="Layer_x0020_1">
  <metadata id="CorelCorpID_0Corel-Layer"/>
  <g id="_2727139036512">
   <path class="fil0" d="M270.07 461.05l0.13 -2.87 -0.79 -35.14 7.5 -0.12 5.52 62.19 -11.77 9.83 -0.59 -33.89zm-270.07 -202.81l0 -0.16c1.64,-2.07 6.96,-6.52 9,-8.04 2.85,-2.12 2.46,-2.27 4.45,-4.15 11.13,-10.46 26.57,-26.92 33.76,-39.89 4.08,-7.37 7.58,-13.31 11.46,-21.07 14.61,-29.18 25.16,-79.05 17.85,-109.36 3.27,-0.79 9,0 15.31,0 32.43,-0.01 43.51,-0.17 74.02,-9.2 8.2,-2.43 15.24,-5.96 23.42,-9.1 18.74,-7.21 45.52,-26.62 59.67,-40.77 4.93,-4.93 10.91,-12.77 16.02,-16.5 5.24,3.46 19.86,23.63 43.81,39.41 16.94,11.17 35.89,21.21 55.32,26.95 50.91,15.05 81.01,6.77 87.73,8.88 0.53,1.6 -0.31,27.21 -0.33,31.9l3.41 29.1c4.06,21.05 8.48,30.83 16.54,49.46 9.12,21.08 25.45,41 41.5,57.03 4.27,4.26 14.06,11.49 17.07,15.45l-2.69 2.28c-0.74,0.65 -1.2,1.18 -2,1.81 -10.42,8.15 -20.63,18.25 -28.61,28.78 -4.94,6.52 -9.9,12.14 -14.23,19.25 -13.21,21.69 -23.33,45.92 -27.73,70.8 -3.01,17.02 -3.29,28.28 -3.28,45.54 0,4.59 1.66,10.12 1.3,13.7 -5.68,1.89 -10.45,-0.17 -15.59,-0.37l-32.5 1.06c-4.3,0.5 -9.77,1.28 -14.2,2.06 -17.51,3.1 -33.75,8.74 -50.26,15.74 -15.28,6.49 -28.93,15.85 -41.62,25.34l-26 23.74c-1.72,2.12 -5.62,7.3 -7.64,8.62 -3.49,-2.31 -5.27,-6.08 -8.04,-9.18 -1.81,-2.02 -6.51,-5.72 -8.4,-7.86 -18.81,-21.18 -55.45,-41.1 -83.17,-49.78 -9.33,-2.92 -31.82,-8.43 -41.92,-8.78 -5.61,-0.19 -10.15,-0.96 -15.33,-0.93 -5.03,0.02 -11.45,-0.36 -16.28,0 -4.8,0.36 -9.27,2.14 -14.67,0.34 -0.93,-3.69 1.31,-10.01 1.31,-14.66 0,-15.51 -0.5,-30.12 -3.44,-45.39 -6.03,-31.32 -21.28,-65.41 -42.26,-89.74 -12.35,-14.31 -10.94,-13.2 -23.89,-24.89l-8.41 -7c-0.07,-0.27 -0.29,-0.31 -0.46,-0.42zm259.64 203.77l-0.39 33.28c-6.62,-6.02 -4.07,-5.21 -11.5,-10.08l5.12 -62.21 7.42 0.07 -0.65 38.94zm26.46 -40.09l7.55 -0.9 8.88 47.63 -10.27 7.28 -6.16 -54.01zm-48.41 53.94l-9.98 -7.29 8.6 -47.34 7.49 0.81 -6.11 53.82zm-19.75 -13.43l-9.16 -5.28 11.04 -39.19 7.52 0.79 -9.4 43.68zm85.28 -43.47l6.31 -1.39 11.98 39.54 -9.37 5.04c-1.59,-4.55 -9.9,-40.49 -8.92,-43.19zm14.92 -4.54l7.55 -1.88c2.41,6.96 13.79,31.31 13.83,35.89l-8.51 3.3 -12.87 -37.31zm-118.87 37.23l-9.26 -3.71 14.16 -35.37 7.23 1.86 -12.13 37.22zm-18.71 -7.62l-9.56 -3.54 18.06 -34.72 6.53 3.09 -15.03 35.17zm159.8 -38.36l18.81 34.76 -9.12 3.43c-3.92,-4.39 -12.55,-27.13 -15.77,-34.39l6.08 -3.8zm8.55 -3.86l5.94 -3.53 25.23 36.96 -10.84 2.18 -20.33 -35.61zm-187.78 35.16l-11.26 -1.67c3.48,-5.89 21.38,-33.7 25.18,-36.97l5.92 3.15 -19.84 35.49zm201.94 -43.83l5.01 -4.67c2.82,1.71 22.32,26.18 26.6,31.81 2.76,3.64 6.21,7.22 8.89,10.91l-12.34 1.46 -28.16 -39.51zm-224.37 39.48l-12.41 -1.49c2.33,-3.45 6,-7.01 8.48,-10.37 7.33,-9.93 21.87,-25.75 25.85,-32.41l6.35 4.57c-4.4,6.9 -9.25,13.2 -13.76,19.59l-14.51 20.11zm237.67 -50l5.02 -4.71c8.73,8.21 16.59,18.06 25.53,25.36l25.78 26.43 -15.65 0.33c-2.93,-2.33 -39.92,-45.53 -40.68,-47.41zm-263.5 47.39l-15.77 -0.41 51.26 -51.25 5.29 4.07 -40.78 47.59zm275 -58.66l4.49 -4.79 48.51 39.01 0.09 16.33c-5.36,-4 -8.28,-8.37 -13.18,-12.7l-26.87 -24.78c-3.86,-3.71 -9.5,-9.22 -13.04,-13.07zm-299 50.43c-0.29,-18.2 -3.08,-13.87 11.68,-25.66 4.28,-3.41 7.94,-6.61 12.02,-9.94l24.22 -19.66 4.78 5.08 -52.7 50.18zm314.92 -67.91c4.53,2.69 39.09,25.85 40.3,27.79l-1.96 11.14 -43.23 -32.99c1.8,-2.94 1.72,-3.96 4.89,-5.94zm-316 39.16l-2.14 -11.83 40.61 -27.37 5.03 5.65 -43.5 33.55zm324.65 -53.08l36.68 19.8 -3.06 10.07 -37.93 -23.52 4.31 -6.35zm-294.63 0.21l3.7 6.24c-5.17,2.11 -13.39,8.69 -18.83,11.64 -5.14,2.79 -13.85,8.34 -18.81,11.78l-2.9 -10.22 36.84 -19.44zm301.72 -14.89l35.76 15.31 -2.86 9.33c-5.35,-2.11 -32.83,-15.61 -35.6,-18.44l2.7 -6.2zm-308.95 0.39l2.51 5.72c-2.96,3.14 -30.09,16.19 -35.7,18.5l-2.77 -9.6 35.96 -14.62zm315.06 -15.48l38.1 12.29 -4.61 8.59 -36.09 -13.91 2.6 -6.97zm-321.37 0.05l2.27 6.39c-1.74,1.66 -30.93,12.78 -36.1,14.63l-4.24 -9.28 38.07 -11.74zm325.49 -15.81l44.49 9.53 -5.63 9.2 -40.51 -11 1.65 -7.73zm-330.13 0.33l2.02 6.87 -40.83 11.49 -4.99 -9.38 43.8 -8.98zm333.25 -16.05l54.98 6.29 -6.43 9.97 -49.71 -8.9 1.16 -7.36zm-390.77 6.35c6.13,-1.87 47.88,-6.37 54.9,-6.25l1.06 7.28c-13.82,1.22 -37.39,8.6 -49.29,8.24 -2.66,-3.53 -4.72,-5.59 -6.67,-9.27zm381.13 -8.61c-3.73,36.46 -27.42,80.37 -56.26,101.04 -16.22,11.63 -30.9,22.12 -50.8,27.59 -26.23,7.21 -42.15,10.39 -70.11,7.37 -86.24,-9.31 -149.79,-86.98 -139.13,-174.02 10.45,-85.3 91.15,-144.53 176.23,-134.9 86.56,9.79 149.04,85.07 140.07,172.92zm11.34 -13.87l73.51 0.88 -11.06 11.62 -63.27 -5.23 0.82 -7.27zm-339.22 0.02l0.84 7.26 -63.19 5 -11.4 -11.49 73.75 -0.77zm402.16 -21.42l10.46 11.46 -73.62 0.89 -0.54 -7.29 63.7 -5.06zm-475.57 11.39c1.19,-2.69 9.06,-9.54 11.53,-11.62l62.36 5.28 -0.21 7.42 -73.68 -1.08zm458.72 -31l7.38 9.96 -55.34 5.68 -0.65 -6.95 48.61 -8.69zm-431.53 -0.35l48.78 9.34 -0.89 6.77 -55.41 -5.98 7.52 -10.13zm379.36 -6.94c4.4,-1.61 37.76,-11.01 40.72,-11.03l4.92 9.09 -44.37 9.09 -1.27 -7.15zm-367.16 -11.39l40.18 11.43 -1.54 7.24 -44.55 -9.34 5.91 -9.33zm398 -17.84l4.38 8.98 -38.32 11.49 -2.26 -6.62 36.2 -13.85zm-388.53 0l36.01 14.08 -2.61 6.62 -38.41 -11.67 5.01 -9.03zm381.72 -18.88l2.81 9.66 -36.22 14.66 -2.34 -6.85 35.75 -17.47zm-375.29 -0.33l36.07 17.75 -2.44 6.94c-10.55,-1.85 -26.18,-12.5 -36.47,-14.47l2.84 -10.22zm331.41 4.43c2.43,-2.52 15.33,-10.69 18.78,-12.54 6.28,-3.36 12.61,-8.01 18.77,-11.52l2.82 10.15 -36.88 19.64 -3.49 -5.73zm-324.47 -23.87c2.57,1.79 6.65,4.42 9.3,5.99 3.13,1.85 6.61,4.23 9.57,5.75l18.43 12.32 -3.99 5.71 -36.75 -19.75 3.44 -10.02zm314.98 10.48c4.81,-5.87 33.93,-25.79 42.91,-33.78l2.21 12.02 -41.61 27.32 -3.51 -5.56zm-311.45 -33.87c1.81,0.77 41.16,31.81 43.13,33.99l-3.75 5.37c-5.67,-2.28 -33.15,-22.09 -41.5,-27.51l2.12 -11.85zm300.37 21.44c3.29,-4.71 9.33,-8.31 13.29,-12.79l39.48 -37.33 0.32 15.68c-0.75,1.99 -40.78,32.94 -48.17,39.68l-4.92 -5.24zm-299.3 -50.22c4.87,4.11 9.18,8.53 13.81,12.7l38.99 37.59 -4.79 5.06c-2.9,-2.49 -3.88,-2.41 -6.59,-5.25l-32.97 -27.3c-1.52,-1.25 -4.24,-2.08 -8.59,-7.02l0.14 -15.78zm287.58 39.41c0.82,-2.77 36.21,-43.4 40.69,-47.75l15.83 0.5c-1.57,1.97 -1.35,1.55 -2.99,2.97 -2.21,1.91 -1.4,1.77 -3.17,3.54l-45.43 45.07 -4.93 -4.33zm-227.66 4.35c-4.51,-4.26 -9.45,-8.19 -13.54,-12.96l-38.25 -38.87 15.96 -0.18 10.24 11.89c3.46,3.69 7.65,7.66 10.43,11.57 5.74,8.07 14.11,15.45 20.26,23.78l-5.1 4.77zm214.28 -14.77c4.53,-8.35 22.35,-30.9 28.25,-39.73l11.81 1.46c-0.54,4.18 -29.58,34.13 -33.62,42.84l-6.44 -4.57zm-223.76 -39.58c4.1,5.42 10.54,14.21 14.13,20.3 3.49,5.93 10.88,13.31 13.7,19.4l-6.11 4.11c-0.33,-2.32 -33.79,-39.09 -34.12,-42.51l12.4 -1.3zm209.95 31.16c0.47,-2.86 17.55,-33.03 20.08,-36.1l10.35 2.66 -23.84 36.74 -6.59 -3.3zm-188.47 -36.02c3.1,4.29 19.35,32.32 20.01,36.14l-6.81 2.97 -23.68 -36.88 10.48 -2.23zm173.81 28.36c0.96,-4.8 13.14,-32.95 15.92,-35.03l8.62 3.65 -18.62 34.59 -5.92 -3.21zm-162.59 -32.51l7.51 -2.61c2.95,2.31 14.59,29.84 16.04,35.25l-6.31 3.05 -17.77 -34.15 0.53 -1.54zm159.11 -10.25l8.9 3.9 -14.13 35.38 -7.51 -2.4 12.74 -36.88zm-131.71 0.02l11.87 37c-3,1.27 -4.16,1.84 -7.09,1.65l-14.25 -34.87 9.47 -3.78zm18.69 -10.73l9.09 43.47 -7.16 1.45 -11.27 -39.79 9.34 -5.13zm93.73 0.15l9.85 4.83 -11.66 40.04 -7.51 -1.74 9.32 -43.13zm-84.46 -5.98c3.1,-1.96 7.68,-6.86 10.47,-7.52l5.69 53.86 -7.18 0.36 -8.98 -46.7zm64.77 -7.64c3.95,1.12 7.22,5.29 10.43,7.63l-8.68 47.33 -7.7 -1.06 5.95 -53.9zm-44.17 -8.62c4.09,-3.33 7.28,-7.45 11.41,-10.75l0.67 72.05 -7.11 0.28 -4.97 -61.58zm22.75 -10.76c4.01,2.83 7.23,7.68 11.76,10.79l-5.62 61.61 -7.21 -0.43 1.07 -71.97z"/>
   <path class="fil1" d="M860.7 107.15c-1.67,3.24 -1.52,285.26 -0.1,289.15 5.25,1.92 44.08,0.66 52.9,0.66l0 -191.3 90.96 191.26 52.52 0.04 0 -290.78c-8.92,0 -47.47,-1.2 -52.94,0.62 -1.61,4.85 -0.63,169.88 -0.63,189.73 -3.31,-3.75 -47.78,-101.39 -56.43,-118.61 -5.33,-10.6 -32.67,-70.54 -34.67,-71.52 -7.37,-0.78 -47.32,-1.72 -51.61,0.75z"/>
   <path class="fil1" d="M1163.16 352.96l0 -88c34.77,0 66.01,-4.42 66,44 -0.01,48.5 -27.12,44 -66,44zm0 -132l0 -69.83c29.67,0 60.39,-3.71 60.26,34.44 -0.13,38.9 -24.39,35.39 -60.26,35.39zm-53.76 -113.81c-2.67,5.18 -0.77,260.11 -0.77,289.81 24.88,0 89.53,2.83 112.13,-2.65 22.42,-5.45 30.09,-10.84 44.5,-25.33 24.63,-24.77 34.48,-101.38 -17.93,-127.93 2.66,-3.74 18.59,-8.45 26.41,-35.77 6.94,-24.26 2.2,-62.86 -18.04,-79.73 -12.59,-10.49 -27.74,-16.54 -43.82,-18.35l-20.03 -1.02c-10.56,0.03 -78.26,-1.44 -82.45,0.97z"/>
   <path class="fil1" d="M825.5 300.35c-17.9,0 -36.07,-0.6 -53.57,0.96 0,17.16 -5.78,29.35 -19.7,38.65 -14.16,9.46 -31.66,9.75 -46.94,2.16 -32.69,-16.23 -24.23,-57.76 -24.23,-94.38 0,-18.93 -1.29,-38.97 1.05,-57.3 3.6,-28.29 39.74,-49.93 72.04,-28.23 5.06,3.4 10.85,10.39 13.67,15.99 5.98,11.93 3.02,19.78 4.74,24.91 5.47,1.83 44.01,0.63 52.94,0.63 0,-18.29 -2.02,-31.55 -9.24,-46.24 -33.36,-68.01 -129.77,-77.08 -176.15,-6.19 -17.06,26.07 -15.49,42.74 -15.49,68.69l-0.03 84.22c0.09,6.65 2.74,17.16 4.69,23.04 21.03,63.14 101.61,96.24 160.05,49.8 23.75,-18.88 36.17,-46.06 36.17,-76.71z"/>
   <path class="fil2" d="M249.89 403.51l10.86 -26.84 4.82 -0.11 10.3 27.37c-5.86,0.38 -6.47,-2.02 -7.8,-7.76l-8.85 -0.18c-5.68,2.99 -0.72,8.94 -9.33,7.52zm77.52 -17.07c-5.84,17.67 -34.41,7.53 -26.85,-11.2 2.79,-6.92 12,-9.46 18.99,-7.08 6.89,2.35 10.25,11.04 7.86,18.28zm-49.53 -9.99c6.04,-1.53 10.25,-2.36 16.07,0.1 5.24,9.39 0.44,13.64 -8.7,15.1 -0.01,2.32 0.18,3.31 0.54,5.55 1.2,7.29 0.36,4.33 -0.74,5.77 -4.63,-0.3 -2.74,0.59 -4.93,-12.68 -0.75,-4.59 -2.44,-9.27 -2.24,-13.84zm-35.17 16.73c-6.94,-4.45 -11.2,1.22 -11.42,-5.78 1.73,-1.19 -1.05,-1.38 3.77,-0.93 0.8,0.08 3.89,0.86 4.82,1.06 2.91,0.63 6.18,1.34 8.6,2.74 -1.56,14.81 -27.77,14.75 -27.87,-2.85 -0.11,-18.14 24.91,-19.14 27.95,-4.56 -8.63,-0.28 -5.31,-4.73 -11.65,-5.56 -4.27,-0.55 -9.83,2.54 -11.1,6.35 -3.38,10.08 7.37,17.08 16.9,9.53zm-50.44 -7.19c-1.27,-2.75 -1.57,0.35 -0.16,-3.35 1.65,-4.37 9.38,-19.58 11.58,-21.72l3.51 1.95 3.3 22.35c1.65,-2.42 2.95,-6.26 4.62,-9.33 2.03,-3.71 1.83,-8.35 5.78,-7.01 1.21,1.64 2.31,-2.12 0.81,3.71l-11.27 21.69c-5.15,-1.59 -4.81,-12.8 -6.86,-24.81 -5.64,9.22 -5.88,18.74 -11.31,16.52zm130.21 -23.34c4.57,-2.67 10.49,-7.83 16.41,-5.31 9.7,4.13 2.48,14.24 2.41,14.41 3.49,1.04 8.71,2.94 11.31,5.48 -5.71,1.73 -2.98,2.29 -9.46,0.01 -2.9,-1.01 -5.48,-1.97 -8.18,-3.31 1.62,3.21 5.06,7.17 5.41,10.52l-3.77 1.1 -14.13 -22.9zm-139.6 17.71l-2.36 -1.48c1.1,-7.21 12.53,-17.13 14.12,-23.48l4.14 2.2c-1.03,3.03 -13.35,21.15 -15.9,22.76zm-6.09 -15.72c0.02,-5.44 -7.51,-14.42 0.5,-18.03 7.81,-3.52 15.17,3.62 10.18,11.33 -5.62,-1.6 -1.35,-1.85 -3.67,-7.04 -3.94,-1.49 -3.6,-0.81 -6.12,2.06 1.81,6.54 4.79,5.3 3.17,13.96 -5.51,4.54 -8.18,6.58 -14.79,1.72 -2.07,-3.82 -2.47,-7.38 0.56,-10.81l2.36 0.58c0.87,4.86 -2.04,1.65 0.92,8.28 4.59,0.6 3.55,0.51 6.89,-2.05zm163.19 -14.29c4.16,-2.12 2.9,-1.24 6.13,-4.28 1.87,-1.76 3.23,-2.97 5.38,-3.13l1.43 1.45c-0.99,3.73 -3.08,5.08 -6.85,6.36 0.72,2.71 2.47,4.82 4.98,6.62 8.3,-6.94 6.04,-7.08 9.26,-4.06 -0.83,3.31 -3.94,4.73 -6.68,7.6l4.71 4.98c2.8,-1.75 5.86,-4.94 9.47,-6.02 2.06,7.92 -0.96,2.6 -8.77,12.28 -3.06,-1.68 -8.11,-6.97 -10.44,-10.02 -5.52,-7.18 -7.47,-6.11 -8.62,-11.78zm-181.31 -9.08c1.97,-2.26 10.95,-3.29 7.42,5.63 -3.92,1.68 -3.6,1.83 -7.51,-0.69l0.09 -4.94zm206.81 4.97c-0.8,-5.5 0.88,-7.01 6.29,-6.39 2.65,3.13 2.53,3.43 1.18,7.29 -3.98,1.3 -3.97,1.36 -7.47,-0.9zm24.43 -7.28c-3.66,1.16 -3.42,-0.6 -7.54,-2.89 -7.22,-4.01 -19.89,-8.93 -13.16,-18.52 4.75,-6.77 9.68,-3.72 15.2,-0.84 3.29,1.72 11.75,6.28 13.74,8.58l-2.36 2.64c-6.42,-1.98 -15.38,-11.03 -21.98,-9.22l-1.66 4.6c2.61,4.17 5.53,4.76 9.83,7.29 10.87,6.42 9.49,4.26 7.93,8.36zm-255.06 -22.2c6.3,4.45 -0.85,5.06 4.06,12.11 7.17,10.29 22.6,-0.33 17.37,-9.81 -3.13,-5.67 -6.36,-1.03 -9.22,-9.61 16.58,0.91 19.39,19.74 7.67,26.16 -12.34,6.77 -27.47,-4.22 -19.88,-18.85zm12.03 -16.3c-1.14,-3.78 -3.57,-6.63 -2.48,-10.17l3.3 -0.55 4.36 13.44 -26.53 8.47c-0.76,-2.58 -1.44,-4.69 -2.51,-7.16 -3.27,-7.55 -1.21,-5.53 -0.72,-6.62 4.45,-0.82 4.18,3.9 5.73,8.36l6.67 -2.05c0.06,-6.88 -2.99,-5.52 -1.03,-10.14 4.46,-0.52 3.79,4.64 6.01,8.48l7.2 -2.06zm229.01 8.73c0.61,-6.39 2.91,-4.3 9.42,-4.49l2.84 -9.84c-4.47,-3.23 -5.89,-3.84 -4.87,-9.06 2.39,0.98 11.85,8.42 13.96,10.46 4.15,4.03 11.17,7.39 7.25,12.25l-28.6 0.68zm12.99 -27.97l-1.61 3.05 -2.85 -1.77 1.85 -13.19 27.16 4.26c0.14,3.11 -0.38,5.66 -0.78,8.82 -0.69,5.39 0.05,4.8 -4.83,4.46l0.94 -9.84 -7.01 -0.94c-1.24,2.91 -0.73,2.87 -1.25,5.78 -1.05,5.79 -0.21,2.64 -2.58,3.77 -2.7,-1.7 -2.81,1.42 -0.6,-10.32l-7.4 -1.1 -1.04 7.02zm-140.28 -133.57c34.92,-3.92 61.2,3.64 88.26,23.41 48.34,35.31 56.51,110.31 16.77,157.68 -62.21,74.12 -189.4,41.05 -201.71,-54.19 -3.15,-24.33 0.43,-49.67 12.8,-70.58 6.28,-10.63 5.26,-8.57 11.48,-16.24 17.09,-21.07 44.12,-36.91 72.4,-40.08zm-105.12 118.83c0.3,6.51 -3.16,6.76 -7.94,10.64 -2.02,1.65 -7.84,7.06 -9.46,8.96l19.97 -2.81c0.69,4.57 3.02,3.42 -12.02,6.02 -4.89,0.84 -10.73,1.64 -15.64,1.91 -0.66,-9.38 11.88,-11.12 16.82,-19.64l-19.09 2.64 -0.34 -3.86 27.7 -3.86zm-27.75 -3.57c-0.71,-4.14 -1.22,-11.11 0.97,-14.23 5.19,0.75 1.52,-0.09 3.75,4.9l23.03 0.77 -0.29 4.02 -23.64 -0.34c-0.05,5.34 1.08,4.99 -3.82,4.88zm275.44 -12.45c-5.62,0.07 -4.47,0.8 -4.89,-3.67 4.08,-2 22.37,-1.63 27.95,-1.17 0.2,5.36 1.66,14.68 -4.15,17.26 -6.34,2.8 -11.01,0.48 -12.84,-5.85 -3.85,2.53 -6.21,5.19 -10.65,6.75l0.2 -5.02 11.51 -8.43c-2.62,-0.11 -4.63,0.1 -7.13,0.13zm-256.87 -10.94l0.77 1.27c11.83,1.07 8.53,1.36 8.92,4.08 -1.9,1.29 0.06,0.73 -2.47,1.16l-11.67 -1.69c-4.54,-0.7 -9.9,-1.1 -13.63,-3.29 0.53,-5.31 1.02,-13.81 7.26,-15.34 9.8,-2.42 9.59,4.41 12.47,8.33 3.62,-2.39 6.53,-3.94 10.92,-4.97 -1.45,8.31 -0.37,3.22 -12.57,10.45zm278.51 -5c0.07,4.22 -0.88,3.47 -5.66,4.29 -3.01,0.52 -6.01,1.13 -9.04,1.66 -6.08,1.05 -12.45,1.99 -14.61,-5.32 -4.44,-15.04 25.05,-14.28 26.33,-13.75l0.29 2.37c-4.55,3.13 -14.89,2.2 -22.61,6.59l0.55 4.41c6.56,5.47 19.19,-3.93 24.75,-0.25zm-37.02 -26.95c3.84,-2.68 20.26,-8.79 25,-9.66 3.99,4.65 3.76,8.11 3.02,13.84 -4.25,2.01 -4.11,3.16 -9.17,2.14 -3.23,3.82 -4.94,7.94 -11.66,5.83 -4.91,-1.54 -6.68,-7.3 -7.19,-12.15zm-249.39 -4.78c3.63,-2.05 24.81,-1.1 30.05,-0.49 -0.44,5.57 -4.44,4.06 -9.44,3.78l-3.79 9.14c3.43,4.74 6.4,3.7 4.65,9.03 -1.71,0.33 -0.44,1.52 -3.76,-0.99 -0.72,-0.55 -2.2,-2.18 -2.86,-2.92l-11.23 -10.79c-3.64,-3.58 -5.03,-0.97 -3.62,-6.76zm19.88 -11.4c-3.51,-2.31 -9.95,-4 -10.23,-8.34 4.67,-4.32 11.68,6.14 21.78,10.07 2.08,-2.91 2.95,-6.3 6.27,-6.24 3.25,3.17 1.26,3.36 -1.06,6.74 -2.02,2.95 -1.14,3.23 -4.25,5.23 -3.48,-1.07 -9.11,-5.22 -12.51,-7.46zm225.15 -8.34c1.18,-5 -4.07,-12.63 2.29,-16.02 7.17,-3.81 12.55,1.56 11.95,9.35l-3.99 2.73c-2.43,-5.06 1.5,-4.89 -1.18,-7.7 -2.41,-2.53 -4.26,-0.64 -5.92,1.19 0.17,5.05 2.78,4.06 1.42,12.43 -6.41,6.05 -13.02,6.59 -16.94,-2.33 -0.07,-4.61 0.11,-6.36 4.45,-7.69 2.58,4.79 -1,1.98 0.49,8.36 3.25,2.18 4.32,2.29 7.43,-0.32zm-13.12 -11.36c-16.15,3.98 -24.3,-13.27 -15.04,-22.58 10.25,-10.32 25.84,-4.27 24.85,11.88 -7.96,-2.63 -1.25,-5.7 -8.72,-10.59 -9.98,-6.54 -20.48,7.67 -12.42,15.32 3.97,3.77 9.79,-0.36 11.33,5.97zm-152.1 -48.44c7.54,2.46 14.72,16.11 21.98,19.73 -2.37,2.86 -0.2,0.99 -3.78,3.11l-6.45 -6.11 -9.24 4.46 -0.35 8.4 -3.88 1.06 -0.8 -28.63 2.52 -2.02zm-39.55 24.26c5.28,-4.43 14.17,2.79 25.29,5.32 -1.6,-1.4 -5,-6.15 -6.61,-8.18 -6.59,-8.31 -5.41,-5.87 -3.56,-8.74 2.68,-0.25 1.36,-2.27 6.25,4.17 16.33,21.53 18.84,22.45 -13.54,11.48 2.33,3.22 10.61,13.15 11.39,15.93l-3.85 2.36c-2.16,-7.09 -11.95,-14.5 -15.37,-22.34zm161.48 9.37c0.68,-4.41 9.98,-16.21 11.48,-19.05 1.99,-3.75 0.79,-4.49 5.19,-3.45 1.36,4.24 -0.51,3.9 -2.55,6.92l-7.94 13.16c-2.75,4.2 -2.12,4.31 -6.18,2.42zm-32.65 -39.73c7.51,-2.75 16.72,0.73 18.68,8.71 1.9,7.73 -1.45,15.51 -8.76,17.9 -18.57,6.08 -27.05,-20.31 -9.92,-26.61zm24.27 23.8c2.05,-3.79 3.44,-7.89 5.61,-11.36l-3.88 -3.31 0.96 -2.85c4.35,1.16 10.41,3.62 13.39,6.74 -1.66,3.78 -2.31,2.54 -5.83,1.23 -3.8,5.44 -6.94,16.83 -11.48,20.43 -4.39,-2.94 -1.38,-6.07 1.23,-10.88zm-84.02 -9.32c1.5,9.93 2.66,7.72 0.53,11.12 -4.2,-0.22 -3.33,-0.62 -5.42,-12.28 -0.69,-3.85 -2.08,-10.58 -1.75,-14.2 8.72,-2.05 10.16,-2.54 18.21,0.84 1.26,6.52 2.95,10.45 -4.32,13.64 3.02,5.83 4.7,2.05 8.21,9.33 -8.45,0.88 -9.15,-4 -15.46,-8.45zm44.9 1.07c-7.47,13.8 -27.83,7.46 -26.59,-8.41 1.23,-15.87 24.45,-16.05 26.8,-4.85 -7.45,1.38 -5.59,-4.19 -13.72,-3.23 -10.45,1.25 -11.07,17.22 -0.88,19.18 6.78,1.3 6.15,-2.99 14.39,-2.69zm142.6 143.74c8.97,-87.85 -53.51,-163.13 -140.07,-172.92 -85.08,-9.63 -165.78,49.6 -176.23,134.9 -10.66,87.04 52.89,164.71 139.13,174.02 27.96,3.02 43.88,-0.16 70.11,-7.37 19.9,-5.47 34.58,-15.96 50.8,-27.59 28.84,-20.67 52.53,-64.58 56.26,-101.04z"/>
   <path class="fil2" d="M294.41 345.69l-0.94 -5.53c8.91,-4.01 10.64,-1.83 18.97,-0.16 -2.83,7.4 -10.9,9.12 -18.03,5.69zm-76.86 -4.78c5.68,-4.2 12.62,-3.5 18.74,-0.72 -0.65,12.68 -15.15,7.47 -18.74,0.72zm-13.27 -7.22c7.78,-1.74 11.96,-3.18 19.16,1.77 -1.96,1.79 -7.34,3.9 -10.19,3.99 -5.67,0.17 -6.35,-2.09 -8.97,-5.76zm101.82 2.1c1.99,-1.7 5.69,-3.36 8.74,-3.65 4.59,-0.45 8.36,-0.26 10.74,3.22 -8.83,6.58 -9.83,4.4 -19.48,0.43zm-21.33 2.09c1.52,-10.06 10.73,-8.3 18.88,-7.85 -4.3,7.41 -10.65,9.22 -18.88,7.85zm-58.53 -7.86c8.13,-0.45 17.18,-2.16 18.87,7.81 -9.89,2.37 -13.35,-1.3 -18.87,-7.81zm70.78 -2.5c0.58,-6.86 11.41,-8.99 17.08,-8.97 -1.92,7.39 -9.76,9.77 -17.08,8.97zm-81.12 -8.04c4.69,-2.36 16.1,1.51 16.98,8.04 -7.99,0.85 -13.35,-1.17 -16.98,-8.04zm120.22 3.43l-0.47 3.19c-4.46,3.09 -11.89,7.15 -16.78,3 1.39,-0.98 3.29,-1.91 4.41,-3 3.06,-2.95 0.49,-3.49 4.96,-3.45 -0.46,-0.49 -0.67,-0.84 -1.57,-1.75 -1.56,-1.56 -0.68,-0.64 -1.94,-1.82 -0.83,6.82 -12.85,13.88 -20.24,13.76 2.9,-7.21 12.15,-13.35 19.78,-14.21 9.03,-1.85 -4.73,-2.54 16.31,-2.13 -1.97,5.33 -6.31,2.3 -11.79,4.98l7.33 1.43zm-83.62 -3.2c2.25,1.48 1.65,1.5 0.93,3.29 9.3,-1.7 13.66,-2.28 23.07,0l-0.44 -0.35c2.14,-6.28 4.58,-10.87 11.86,-10.9 1.29,3.98 0.46,5.61 -0.75,9.4 4.85,-4.32 6.22,-4.86 13.46,-4.57 -0.88,7.72 -8.28,13.6 -16.34,12.4l0.58 -4.42 -3.7 1.86c3.27,6.19 2.74,6 1.5,12.59l-0.21 0.12c5.3,-1.05 5.54,2.13 8.32,5.24 3.89,4.34 6.85,3.55 7.13,10.15l-6.89 1.4c-2.33,-5.67 -3.98,-10.19 -9.21,-12.91 1.12,4.3 5.15,8.46 4.92,12.56 -7.74,1.74 -11.64,-0.28 -11.29,-12.23 -5.24,0.28 -6.46,-1.31 -10.48,-1.33 -4.11,-0.02 -5.27,1.64 -10.54,1.31 0.09,3.8 -0.82,9.14 -3.17,12.2l-8.14 0.47c-0.25,-4.45 3.08,-7.2 4.49,-11.77l0.04 -0.32c-5.35,2.35 -6.62,6.77 -8.78,11.62l-6.93 -0.85c0.25,-6.15 2.46,-5.42 6.63,-9.94 2.86,-3.09 3.69,-6.63 8.82,-5.56l-0.19 0.03c-0.76,-6.95 -2.59,-5.47 1.49,-12.77l-3.67 -1.8 0.73 4.29c-8.41,1.43 -15.41,-4.52 -16.49,-12.33 7.33,-0.31 8.59,0.31 13.47,4.64 -1.39,-3.58 -2.04,-5.82 -0.71,-9.53 5.19,0.19 9.1,3.21 10.49,8.01zm-63.55 -2.71l13.07 -0.48c1.89,4.24 2.5,3.65 -0.41,5.52 3.61,1.18 5.44,4.26 9.14,7.01 -1.38,1.14 -1.53,1.64 -5.11,1.67 -7.84,0.08 -10.88,-4.03 -13.38,-9.11l8.88 -0.11c-5.62,-3 -8.16,0.39 -12.19,-4.5zm126.98 3.15l1.95 -6.12 8.04 2.21c-3.19,2.99 -5.34,3.56 -9.99,3.91zm-102.24 -1.67l1 2.25 -2.33 0.58c6.4,1.78 10.19,5.66 13.02,11.47 -8.42,0.46 -18.51,-6.86 -21.2,-14.34l7.14 2.18 0.41 -1.01c-4.92,-0.62 -3.95,-0.3 -7.75,-3.08l8.2 -2.76 1.51 4.71zm-0.52 -3.78c3.4,-2.86 12.62,-4.07 14.76,4.31 -5.52,0.08 -10.57,-0.45 -14.76,-4.31zm37.45 -2.01c23.92,4.26 11.57,1.59 28.76,0.2l-4.75 8.03c-9.61,-0.86 -9.1,-1.57 -19.23,-0.02l-4.78 -8.21zm-34.38 -0.8c-3.24,2.3 -11.24,2.54 -15.22,3.14 -6.37,0.96 -11.94,3.11 -15.84,-2.66 12.43,4.65 19.98,-0.98 31.06,-0.48zm-34.44 -3.02c3.51,1.6 1.99,0.61 3.12,3.36 -2.86,-1.61 -2.02,-0.46 -3.12,-3.36zm133.96 -3.77c-1.09,3.93 -1.04,1.39 -3.51,5.04 4.15,3.22 23.29,5.52 32.48,2.12 -5.49,8.43 -22.62,1.05 -31.22,0.7l3.41 1.17c-4.49,4.43 -9.22,4.84 -15.01,4.87 1.75,-6.7 4.57,-6.09 11.05,-6.19 -4.19,-2.64 -1.55,-0.87 -2.06,-2.89 1.93,-2.92 1.94,-3.68 4.86,-4.82zm1.86 -1.77l-1.86 1.77 0.1 -1.54 1.76 -0.23zm-140.64 -2.99c2.03,1.74 3.97,5.63 4.82,8.53 -2.64,-1.59 -4.67,-5.15 -4.82,-8.53zm140.64 2.99l2.63 -5.77c3.52,0.62 2.72,0.04 5.24,1.95 -7.72,-0.06 -2.57,0.8 -7.87,3.82zm-96.42 -96.52l87.55 -0.19c0.88,11.94 1.28,63.37 -1.88,72.41 -16.86,48.21 -73.04,38.22 -83.98,0.18 -2.93,-10.2 -2.73,-60.18 -1.69,-72.4zm123.27 50.5l0.94 0c0.63,-5.09 0.39,-12.46 4.14,-15.49 5.2,6.7 2.92,4.72 4.65,12.48l0.43 0.14c2.55,-3.48 3.13,-7.75 6.29,-9.93 2.16,8.71 2.78,17.05 -2.21,25.2 -2.2,3.58 -3.33,1.67 -4.2,5.95l0 0.9 6.49 -6.35c0.52,3.05 -0.04,7.21 -0.97,10.42 -1.04,3.57 -3.8,5.91 -4.57,8.63l0.2 0.1c2.27,2.76 -0.37,3.32 -1.23,5.61 -0.01,0.04 -1.02,13.61 -9.56,17.36 2.22,-4.54 7.37,-8.71 7.73,-14.25 -10.5,2.07 -14.62,2.85 -25.69,2.36l-0.72 -1.27 0.34 -0.68c-2.16,-4.66 -2.46,-4.58 -0.66,-9.83l5.31 8.55 0.42 -0.68c3.47,-0.71 2.91,-1.8 4.64,-5l-1.41 0.21c-2.32,2.68 0.31,0.96 -2.91,2.13 -9.53,-12.51 -3.04,-16.54 2.1,-27.68l2.36 -1.34c-1.25,-9.27 -4.49,-2.08 -1.76,-16.4 5.73,1.41 6.69,4.28 9.85,8.86zm-14.42 -21.87c10.59,-0.99 15.71,7.59 13.61,17.25l-9.04 -6.65c-3.62,-3.03 -4.97,-5.53 -4.57,-10.6zm21.38 -19.74c8.77,3.09 12.06,26.11 4.4,31.63 -6.88,-9.18 -5.64,-20.7 -4.4,-31.63zm-6.3 6.52c6.05,5.89 4.5,12.7 0.83,19.49 -4.88,-5.9 -7.95,-13.59 -0.83,-19.49zm-11.26 12.28l-5.51 -0.41c3.08,-2.81 4.04,-5.44 5.51,0.41zm0.64 -7.21l1.96 -2.18 2.49 9.8c-3.7,-1.32 -4.82,-3.14 -6.4,-6.72l1.95 -0.9zm-4.93 2.69c1.62,-3.94 2.92,-5.83 6.53,-7.6 -1.36,3 -4.13,6.09 -6.53,7.6zm9.91 -9.13l2.81 -1.89c-0.35,4.04 -0.11,4.94 -2.91,7.34l0.1 -5.45zm-20.98 -3.58c3.7,2.63 3.73,7.4 6.85,11.22 1.02,1.25 0.35,0.57 1.39,1.37l2.8 1.78c-5.43,-0.23 -5.18,-1.05 -7.26,-5.81 -1.46,-3.35 -3.28,-4.97 -3.78,-8.56zm-118.11 14.76l-0.62 0.02 1.33 2.01 -2.15 0.57 0 0.64 1.15 0.85c-0.84,8.33 -2.64,6.75 -6.89,11.97l-0.24 0.13 2.65 1.11c2.87,12.17 -1.24,7.98 -2.13,15.36l2.37 1.55c5.19,12.08 11.64,13.47 2.13,27.58l-2.97 -2.08 -0.5 -0.03 0.82 3.71 1.83 0.16c-0.37,-1.72 -0.18,-0.37 1.42,-0.8 3.16,-1.37 2.96,-3.67 5.46,-6.25l0.85 2.26c2.32,2 1.71,1.35 3.61,3.83l-0.45 3.05c2.61,0.7 10.36,10.85 11.24,14.24l-3.07 -0.02 1.36 -1.65 -9.11 -10.77c-15.1,0.92 -15.91,1.52 -31.16,-1.37l-0.35 2.24c-2.68,-2.93 -0.8,-2.03 -1.4,-4.84 -0.23,-1.06 -2.07,-3.49 -2.54,-5.72 5.24,1.72 3.64,4.77 9.96,5.36l1.52 0.15 -1.03 -2.59 -0.5 0.09c-3.1,1.75 -9.27,-4.72 -10.8,-6.81 -2.94,-4.04 -3.45,-10.74 -3.93,-15.63l6.16 5.35 0.1 -0.92c-0.64,-3.07 -4.97,-7.73 -6.36,-12.51 -1.76,-6.08 -0.41,-11.83 0.48,-17.72 0.45,-2.42 -1.67,-0.99 1.39,-2.02 0.36,-9.25 -1.41,-19.14 6.93,-26.44 1.87,1.2 0.47,-1.68 1.84,2.15 0.41,-1.08 -1.02,-2.64 1.78,-5.68l4.93 3.59c-0.97,-4.66 -0.61,-0.87 1.48,-2.41l1.03 2.2c3.02,-0.33 2.39,0.72 2.56,2.59l2.21 2.22c1.6,-0.86 1.38,-1.42 1.38,0.22 2.06,0 0.23,-0.21 0.28,1.49l5.85 6.84c1.99,-0.89 1.79,-1.21 0.81,0.77l2.49 0.4c1.55,-3.35 5.3,-11.6 7.79,-13.3 -0.24,3.14 -5.47,12.18 -7.69,14.33l-3.3 0.53zm143.88 -15.92l4.74 -3.67 0.06 10.08 -5.61 -4.24c0.74,-0.98 0.36,-1.11 0.81,-2.17zm0 0l-4.79 4.74 -3.17 1.51 8.96 -9.85 -1 3.6zm-159.6 -13.36l-2.45 5.79c1.47,3.85 1.11,1.29 3.02,5.23 -6.02,-2.64 -5.58,-9.33 -0.57,-11.02zm118.4 -7.15c7.36,0.84 13.55,-0.12 19.36,5.24 -0.66,3.64 -3.47,6.9 -6.77,8.33 -2.35,-1.87 -2.9,-3.73 -6.08,-6.02 -5.76,-4.15 -3.88,-0.68 -6.51,-7.55zm-88.86 13.61c-3.29,-1.35 -5.42,-4.09 -6.88,-7.38 3.38,-6.61 12.95,-5.59 19.43,-6.19 -1.32,4.9 -2.14,4.21 -5.94,7.05 -3.09,2.31 -4,3.99 -6.61,6.52zm122.53 -16.93c1.67,0.8 18.68,16.49 9.03,20.4 4.43,-9.44 -7.18,-14.49 -9.03,-20.4zm0 0c-1.75,0.65 -1.42,1.09 -1.42,-0.65l-0.49 -1.26c2.62,0.74 1.18,-0.56 1.91,1.91zm-152.07 10.47c0.59,-4.74 6.53,-10.57 10.36,-12.44 -1.27,4.58 -2.36,2.55 -5.24,6.15 -1.95,2.44 -2.87,4.41 -5.12,6.29zm133.83 14.52l-2.44 -3.85c1.36,-3.99 1.79,-3.48 4.16,-6.07 4.95,-5.4 8.25,-12.19 9.21,-19.6 3.01,0.31 3.7,0.65 5.4,2.62l-4.51 -0.85c-0.46,9.45 -7.01,16.72 -12.72,22.83l0.9 4.92zm-96.68 -22.76c3.71,-12.01 17.64,-9.84 27.06,-6.41 -4.78,8.99 -18.47,5.87 -27.06,6.41zm-26.79 -4.2c1.62,-1.86 2.66,-2.67 5.2,-2.07 3.32,11.82 3.3,11.88 11.36,21.06 2.74,3.13 2.89,5.51 -0.21,7.87l0.99 -4.79c-5.83,-6.13 -12.44,-13.3 -12.75,-22.59l-4.59 0.52zm10.62 8.24c-6.45,-6.84 -1.89,-20.98 6.31,-21.31 0.47,8.39 -0.48,15.45 -6.31,21.31zm112.22 -21.39c8.54,1.08 12.57,14.34 6.34,21.56 -5.74,-5.32 -6.85,-13.89 -6.34,-21.56zm-18.55 2.89c9.42,1.78 17.85,6.62 20.78,15.83 -2.58,-0.53 -4.45,-1.16 -7.29,-1.67 -4.33,-0.79 -3.99,-2.11 -6.95,-3.95l2.43 4.06c-8.89,-0.2 -22.78,2.66 -27.37,-6.3 10.17,-3.48 13.71,-5.34 23.55,0.63l-5.15 -8.6zm-89.68 16c3.89,-9.3 10.22,-14.42 20.56,-16.1 -0.88,2.7 -4.9,8.77 -6.91,10.79 -3.71,3.74 -8.76,3.81 -13.65,5.31zm67.01 -21.96c2.78,-2.7 11.41,-2.95 15.52,-1.42 2.7,1.01 6.52,8.2 7.12,11.23 -6.56,0.23 -19.16,-4.26 -22.64,-9.81zm-46.11 9.87c0.63,-3.48 4.04,-9.79 7.34,-11.19 3.97,-1.7 12.52,-1.24 15.34,1.32 -3.78,5.56 -15.8,9.95 -22.68,9.87zm86.3 2.04c-5.32,-1.86 -20.35,-9.85 -22.92,-17.18 5.36,0.6 11.15,1.69 15.72,4.52 6.44,3.99 6.63,4.79 7.2,12.66zm-103.82 0c0.79,-13.3 10.81,-15.83 22.9,-17.18 -2.25,6.02 -4.7,7.13 -10.01,10.26 -2.43,1.44 -10.63,6.06 -12.89,6.92zm41.9 -34.08c-57.7,3.79 -105.15,56.54 -98.89,115.9 6.31,59.77 58.52,101.83 119.48,96.31 58.23,-5.27 105.42,-56.81 98.09,-117.32 -7.27,-60.06 -57.94,-98.87 -118.68,-94.89z"/>
   <path class="fil3" d="M228.82 257.56c2.56,3.09 2.31,4.22 5.91,7.94 15.6,16.14 33.21,16.95 52.77,6.76 7.4,-3.86 8.96,-9.22 13.53,-14.71 1.73,21.36 -15.06,38.25 -36.07,38.25 -20.07,-0.01 -39.08,-17.02 -36.14,-38.24zm7.03 -25.89l8.38 -0.6 2.81 -7.79 2.91 7.81 7.71 0.22c-1.53,2.5 -3.12,3.07 -5.78,5.03 0.65,4.95 2.37,11.4 5.46,15.15l15.21 0.06c2.92,-3.36 4.83,-10.71 5.24,-15.28 -3.35,-3.63 -3.32,-1.22 -5.64,-5l7.72 -0.14 2.69 -7.9 3.33 7.99 7.84 0.1 -5.95 4.7 1.98 8.23c-2.82,-1.83 -3.48,-2.82 -6.62,-4.11l-6.2 3.53 1.76 7.39 8.53 0.37c-8.4,6.29 -6.3,3.3 -4.47,12.66l-7.7 -4.49c-1.27,2.15 -3.79,3.65 -5.9,4.81l2.26 -7.96 -6.27 -4.51 -6.66 4.44 2.22 7.98 -7.08 -4.53 -6.55 4.41c2.61,-9.48 2.58,-7.62 -4.62,-12.56l8.12 -0.37c1.72,-3.21 2.03,-3.68 2.19,-7.39l-5.79 -4.1 -6.6 4.68 1.86 -8.59 -6.39 -4.24zm26.69 -13.14c0.55,-3.63 0.75,-4.76 2.72,-7.36l2.56 7.21 8.51 0.55 -6.52 4.59 1.91 7.75 -6.78 -4.21 -6.78 4 1.87 -7.54 -6.32 -4.91 8.83 -0.08zm-41.34 -11.72c-1.04,12.22 -1.24,62.2 1.69,72.4 10.94,38.04 67.12,48.03 83.98,-0.18 3.16,-9.04 2.76,-60.47 1.88,-72.41l-87.55 0.19z"/>
   <path class="fil0" d="M254.93 151.92c60.74,-3.98 111.41,34.83 118.68,94.89 7.33,60.51 -39.86,112.05 -98.09,117.32 -60.96,5.52 -113.17,-36.54 -119.48,-96.31 -6.26,-59.36 41.19,-112.11 98.89,-115.9zm-6.33 -4.27c-28.28,3.17 -55.31,19.01 -72.4,40.08 -6.22,7.67 -5.2,5.61 -11.48,16.24 -12.37,20.91 -15.95,46.25 -12.8,70.58 12.31,95.24 139.5,128.31 201.71,54.19 39.74,-47.37 31.57,-122.37 -16.77,-157.68 -27.06,-19.77 -53.34,-27.33 -88.26,-23.41z"/>
   <path class="fil1" d="M1357.33 292.7l14.35 0c0,-17.34 1.16,-36.53 -1.18,-53.53l19.36 53.53 18.17 0c0,-16.43 0.72,-68.09 -0.36,-80.71 -6.67,-1.1 -6.86,-0.69 -13.99,-0.59l-0.76 49.54 -18.37 -49.54 -17.22 0 0 81.3z"/>
   <path class="fil1" d="M1480.73 190.35l14.35 0 0.74 -50.49 18.39 50.49 17.21 0 0 -81.3 -14.34 0 0 49.74c-0.13,-0.19 -0.34,-0.71 -0.39,-0.58l-9.31 -24.16c-2.71,-7.72 -6.05,-17.69 -9.43,-25l-17.22 0 0 81.3z"/>
   <path class="fil1" d="M1372.64 382.62l0 -23.92c9.59,0 17.84,-0.32 18.23,11.5 0.44,13.15 -7.84,12.42 -18.23,12.42zm12.19 -37.55c-4.45,0.51 -7.49,1.2 -12.19,1.2l0 -19.13c5.19,0 12.75,-1.57 15.24,3.89 2.72,5.96 1.13,9.91 -3.05,14.04zm-27.74 -30.37c-2.12,4.57 -0.71,69.49 -0.71,80.35 19.52,0 33.86,2.95 43.77,-6.93 9.29,-9.25 8.92,-29.82 -3.6,-36.11 3.82,-5.77 7.38,-6.45 7.71,-15.28 0.26,-7.14 -1.64,-12.69 -6.49,-17.5 -4.45,-4.41 -11.11,-5.51 -17.46,-5.51 -5.87,0 -18.76,-1.42 -23.22,0.98z"/>
   <path class="fil1" d="M1498.9 350.09l0 -24.87c5.49,0 9.74,-0.94 14.37,1.9 3.46,2.12 5.93,6.24 5.79,10.52 -0.41,12.47 -10.48,12.45 -20.16,12.45zm-15.3 44.96l15.3 0 0 -33.48 6.7 0 13.38 33.49 16.27 -0.01 -13.89 -35.79c0.09,0.18 0.44,-0.36 0.56,-0.45l4.98 -3.68c6.32,-6.27 9.54,-12.57 7.49,-22.35 -4.88,-23.35 -31.08,-19.03 -50.79,-19.03l0 81.3z"/>
   <path class="fil1" d="M1502.73 247.74l0 -24.87c5.41,0 10.08,-0.76 14.56,1.7 7.92,4.36 8.54,16.29 0.6,21.12 -4.81,2.92 -9.33,2.05 -15.16,2.05zm-14.35 44.96l14.35 0 0 -33.48 7.65 0 12.03 31.02c0.12,0.27 0.5,1.08 0.62,1.3 0.08,0.16 0.29,0.46 0.36,0.59 0.07,0.13 0.25,0.38 0.38,0.57l15.31 0c-0.67,-7.62 -11.19,-26.3 -13.39,-35.39l2.09 -1.73c2.89,-2.05 4.01,-2.34 6.7,-5.73 10.92,-13.75 2.46,-38.45 -19.32,-38.45l-26.78 0 0 81.3z"/>
   <path class="fil1" d="M1417.6 371.14c0,2.13 1.11,8.74 1.74,10.69 0.96,3.01 2.63,5.66 4.56,7.87 8.65,9.94 30.75,9.75 39.38,-0.62 4.28,-5.13 5.97,-14.41 5.97,-20.81 0,-12.7 0.56,-43.17 -0.36,-53.93 -6.94,-1.14 -8.5,-0.68 -15.9,-0.59l0 57.39c0,16.59 -19.13,16.27 -19.13,0l0 -57.39 -16.26 0 0 57.39z"/>
   <path class="fil1" d="M1628.04 256.35c-0.52,-2.77 -0.57,-27.36 7.61,-31.64 4.82,-2.53 9.95,1.24 11.37,5.96 2.8,9.3 5.01,46.09 -5.42,49.84 -12.13,4.34 -12.27,-17.23 -13.56,-24.16zm4.78 -44.95c-6.25,1.92 -6.08,0.81 -11.26,5.96 -3.52,3.51 -4.75,6.28 -6.33,10.88 -3.45,10.03 -3.77,28.61 -2.31,38.45 2.44,16.4 11.48,32.18 31.6,27.19 22.04,-5.47 20.73,-28.8 20.82,-48.05 0.07,-13.28 -3.74,-29.44 -17.56,-34.09 -5.65,-1.9 -9.9,-1.9 -14.96,-0.34z"/>
   <path class="fil1" d="M1625.17 145.39l0 -24.87c5.39,0 10.1,-0.76 14.56,1.7 9.94,5.5 6.77,17.9 0.78,21.3 -4.48,2.53 -10.01,1.87 -15.34,1.87zm-14.35 44.96l14.35 0 0 -33.48 7.65 0 13.25 33.54 15.44 -0.06 -13.39 -35.34c0.1,-0.13 0.37,-0.62 0.46,-0.45 0.09,0.18 0.44,-0.36 0.56,-0.45 24.06,-15.86 10.34,-45.06 -11.54,-45.06l-26.78 0 0 81.3z"/>
   <path class="fil1" d="M1662.47 373.05c0,32.54 50.7,31.25 50.7,0.96l0 -60.26 -15.31 0c0,9.43 1.09,57.73 -1.53,64.46 -1.32,3.37 -4.87,5.02 -8.16,5.15 -9.95,0.37 -9.44,-9.52 -9.44,-17 0.01,-8.78 1.18,-46.59 -0.63,-51.99 -6.61,-1.21 -8.44,-0.7 -15.63,-0.62l0 59.3z"/>
   <path class="fil1" d="M1447.61 230.6l0.6 -0.07 5.14 28.62 -10.88 0.07 5.14 -28.62zm-28.1 62.1l16.26 0 3.33 -19.49c3.92,-1.22 13.33,-1.22 17.09,0.03l3.84 19.4 16.87 0.06 -19.06 -81.32 -19.2 0.02c-2.17,4.73 -3.91,14.21 -5.18,19.69l-9.24 40.5c-1.23,6.27 -4.16,14.96 -4.71,21.11z"/>
   <path class="fil1" d="M1699.18 128.25l0.6 -0.07 5.14 28.62 -10.88 0.07 5.14 -28.62zm-28.3 62.05l16.46 0.05 3.33 -19.49c3.92,-1.22 13.33,-1.22 17.09,0.03l3.84 19.4 16.87 0.06 -19.07 -81.32 -19.2 0.02 -19.32 81.25z"/>
   <path class="fil1" d="M1624.21 334.79l1.91 0 4.86 26.77 -11.55 0.01c1.54,-6.43 4.77,-20.32 4.78,-26.78zm-27.44 60.33l15.96 -0.07 3.98 -20.06 17.06 -0.03 3.95 20.07 16.14 0.02 -18.5 -81.23 -19.76 -0.07 -18.83 81.37z"/>
   <path class="fil1" d="M1421.18 110c-2.12,4.57 -0.71,69.49 -0.71,80.35l44.95 0 0 -13.39 -28.69 0 0 -22 25.82 0 0 -13.39 -25.82 0 0 -18.18 26.78 0 -0.16 -13.72c-3.82,-1.17 -38.7,-1.54 -42.17,0.33z"/>
   <path class="fil1" d="M1862.39 275.48c-1.58,5.76 -6.22,7.15 -12.11,5.42 -5.63,-1.65 -5.11,-7.93 -7.02,-12.11l-14.69 0.15c-1,4.51 1.82,12.7 4.52,16.71 7.12,10.57 35.58,15.55 44.25,-5.74 0.57,-1.41 1,-2.81 1.31,-4.21l0 -10.39c-1.52,-6.86 -5.96,-12.92 -12.03,-17.01 -9.89,-6.67 -25.79,-7.94 -18.58,-23.51 8.66,-3.96 13.38,0.14 13.39,9.56l16.26 0c-2.95,-33.21 -39.22,-27.94 -45.84,-10.45 -8.92,23.59 16.1,32.01 24.05,37.03 7.41,4.66 6.49,5.94 6.49,14.55z"/>
   <polygon class="fil1" points="1544.82,395.05 1589.77,395.05 1589.77,381.66 1561.08,381.66 1561.08,359.66 1585.95,359.66 1585.95,346.27 1561.08,346.27 1561.08,328.09 1587.86,328.09 1587.86,313.75 1544.82,313.75 "/>
   <path class="fil1" d="M1817.43 267.83l-14.35 0c-2.87,6.21 -1.28,11.39 -9.56,13.39 -9.39,0 -10.44,-19.95 -10.56,-26.75 -0.09,-5.1 0.72,-7.39 1,-11.5 0.44,-6.41 0.14,-14.86 6.65,-18.26 7.79,-4.08 11.51,5.37 11.52,11.56l15.3 0c0,-32.45 -37.51,-34.27 -46.76,-9.46 -5.3,14.22 -9.37,60.28 14.4,66.68 17.83,4.81 32.36,-5.13 32.36,-25.66z"/>
   <path class="fil1" d="M1600.3 267.83l-15.31 0c-1.52,17.09 -19.07,23.94 -19.13,-15.3 -0.01,-4.66 0.54,-13.37 1.49,-17.64 3.84,-17.13 17.35,-12.55 17.64,1.38l15.31 0c0,-18.77 -13.84,-30.45 -32.18,-24.52 -16.04,5.19 -18.55,25.73 -18.52,40.78 0.02,15.5 1.15,36.33 18.34,40.96 18.84,5.06 32.36,-7.04 32.36,-25.66z"/>
   <path class="fil1" d="M1405.16 166.44l-16.26 0c0.01,3.8 -0.3,8.31 -3.6,10.74 -3.35,2.47 -7.96,2.05 -10.42,-1.51 -6.03,-8.7 -8.62,-63.07 9.8,-52.86 5.1,2.83 3.44,6.26 4.85,10.48 4.54,1.51 10.69,0.63 15.63,0.63 -0.02,-18.77 -14.11,-30.04 -32.36,-24.7 -16.77,4.91 -18.34,25.97 -18.34,40.96 0.01,15.22 0.26,37.13 18.22,41.09 18.06,3.99 32.09,-6.16 32.48,-24.83z"/>
   <path class="fil1" d="M1673.7 212.35c-1.56,3.38 -0.71,9.27 -0.71,13.39l17.22 0 0 66.96 16.26 0 0 -66.96 17.22 0 -0.16 -13.72c-3.43,-1.05 -45.99,-1.73 -49.83,0.33z"/>
   <polygon class="fil1" points="1545.77,123.39 1562.99,123.39 1562.99,190.35 1578.3,190.35 1578.3,123.39 1595.51,123.39 1595.51,109.05 1545.77,109.05 "/>
   <polygon class="fil1" points="1741.86,190.35 1783.95,190.35 1784.98,180.8 1784.91,176.96 1758.13,176.96 1758.13,113.83 1757.77,109.64 1753.36,108.92 1741.86,109.05 "/>
   <polygon class="fil1" points="1735.17,292.7 1751.43,292.7 1751.43,211.4 1735.17,211.4 "/>
   <path class="fil4" d="M253.43 323l-4.75 3.43c-4.08,7.3 -2.25,5.82 -1.49,12.77l3.51 2.55 -3.32 -2.58c-5.13,-1.07 -5.96,2.47 -8.82,5.56 -4.17,4.52 -6.38,3.79 -6.63,9.94l6.93 0.85c2.16,-4.85 3.43,-9.27 8.78,-11.62l0.99 -1.43 -1.03 1.75c-1.41,4.57 -4.74,7.32 -4.49,11.77l8.14 -0.47c2.35,-3.06 3.26,-8.4 3.17,-12.2 5.27,0.33 6.43,-1.33 10.54,-1.31 4.02,0.02 5.24,1.61 10.48,1.33 -0.35,11.95 3.55,13.97 11.29,12.23 0.23,-4.1 -3.8,-8.26 -4.92,-12.56 5.23,2.72 6.88,7.24 9.21,12.91l6.89 -1.4c-0.28,-6.6 -3.24,-5.81 -7.13,-10.15 -2.78,-3.11 -3.02,-6.29 -8.32,-5.24l-3.59 2.39 3.8 -2.51c1.24,-6.59 1.77,-6.4 -1.5,-12.59l-4.67 -3.42c-9.41,-2.28 -13.77,-1.7 -23.07,0z"/>
   <path class="fil2" d="M301.03 257.55c-4.57,5.49 -6.13,10.85 -13.53,14.71 -19.56,10.19 -37.17,9.38 -52.77,-6.76 -3.6,-3.72 -3.35,-4.85 -5.91,-7.94 -2.94,21.22 16.07,38.23 36.14,38.24 21.01,0 37.8,-16.89 36.07,-38.25z"/>
   <path class="fil2" d="M21.95 252.56l73.68 1.08 0.21 -7.42 -62.36 -5.28c-2.47,2.08 -10.34,8.93 -11.53,11.62z"/>
   <path class="fil2" d="M376.36 133.63l4.93 4.33 45.43 -45.07c1.77,-1.77 0.96,-1.63 3.17,-3.54 1.64,-1.42 1.42,-1 2.99,-2.97l-15.83 -0.5c-4.48,4.35 -39.87,44.98 -40.69,47.75z"/>
   <path class="fil2" d="M282.56 223.23l-2.69 7.9 -7.72 0.14c2.32,3.78 2.29,1.37 5.64,5 -0.41,4.57 -2.32,11.92 -5.24,15.28l-15.21 -0.06c-3.09,-3.75 -4.81,-10.2 -5.46,-15.15 2.66,-1.96 4.25,-2.53 5.78,-5.03l-7.71 -0.22 -2.91 -7.81 -2.81 7.79 -8.38 0.6 6.39 4.24 -1.86 8.59 6.6 -4.68 5.79 4.1c-0.16,3.71 -0.47,4.18 -2.19,7.39l-8.12 0.37c7.2,4.94 7.23,3.08 4.62,12.56l6.55 -4.41 7.08 4.53 -2.22 -7.98 6.66 -4.44 6.27 4.51 -2.26 7.96c2.11,-1.16 4.63,-2.66 5.9,-4.81l7.7 4.49c-1.83,-9.36 -3.93,-6.37 4.47,-12.66l-8.53 -0.37 -1.76 -7.39 6.2 -3.53c3.14,1.29 3.8,2.28 6.62,4.11l-1.98 -8.23 5.95 -4.7 -7.84 -0.1 -3.33 -7.99z"/>
   <polygon class="fil2" points="433.76,269.84 497.03,275.07 508.09,263.45 434.58,262.57 "/>
   <path class="fil2" d="M388.08 144.44l4.92 5.24c7.39,-6.74 47.42,-37.69 48.17,-39.68l-0.32 -15.68 -39.48 37.33c-3.96,4.48 -10,8.08 -13.29,12.79z"/>
   <path class="fil2" d="M148.7 137.98l5.1 -4.77c-6.15,-8.33 -14.52,-15.71 -20.26,-23.78 -2.78,-3.91 -6.97,-7.88 -10.43,-11.57l-10.24 -11.89 -15.96 0.18 38.25 38.87c4.09,4.77 9.03,8.7 13.54,12.96z"/>
   <polygon class="fil2" points="433.82,246.23 434.36,253.52 507.98,252.63 497.52,241.17 "/>
   <polygon class="fil2" points="21.61,263.36 33.01,274.85 96.2,269.85 95.36,262.59 "/>
   <polygon class="fil2" points="270.66,494.94 282.43,485.11 276.91,422.92 269.41,423.04 270.2,458.18 270.07,461.05 "/>
   <path class="fil2" d="M376.37 382.62c0.76,1.88 37.75,45.08 40.68,47.41l15.65 -0.33 -25.78 -26.43c-8.94,-7.3 -16.8,-17.15 -25.53,-25.36l-5.02 4.71z"/>
   <path class="fil2" d="M88.64 110c4.35,4.94 7.07,5.77 8.59,7.02l32.97 27.3c2.71,2.84 3.69,2.76 6.59,5.25l4.79 -5.06 -38.99 -37.59c-4.63,-4.17 -8.94,-8.59 -13.81,-12.7l-0.14 15.78z"/>
   <path class="fil2" d="M269.56 92.78l7.21 0.43 5.62 -61.61c-4.53,-3.11 -7.75,-7.96 -11.76,-10.79l-1.07 71.97z"/>
   <path class="fil2" d="M387.87 371.35c3.54,3.85 9.18,9.36 13.04,13.07l26.87 24.78c4.9,4.33 7.82,8.7 13.18,12.7l-0.09 -16.33 -48.51 -39.01 -4.49 4.79z"/>
   <path class="fil2" d="M141.57 371.6l-4.78 -5.08 -24.22 19.66c-4.08,3.33 -7.74,6.53 -12.02,9.94 -14.76,11.79 -11.97,7.46 -11.68,25.66l52.7 -50.18z"/>
   <path class="fil2" d="M260.29 423.07l-7.42 -0.07 -5.12 62.21c7.43,4.87 4.88,4.06 11.5,10.08l0.39 -33.28 0.65 -38.94z"/>
   <path class="fil2" d="M247.88 31.57l4.97 61.58 7.11 -0.28 -0.67 -72.05c-4.13,3.3 -7.32,7.42 -11.41,10.75z"/>
   <path class="fil5" d="M179.8 262.2c10.27,8.52 9.65,18.13 10.41,30.76 -9.22,-7.09 -14.86,-18.1 -10.41,-30.76zm0.58 -20.29c2.59,2.67 2.09,5.54 3.05,9.84 0.77,3.47 1.77,7.07 0.1,9.94 -3.68,-1.82 -0.6,-2.53 -6.57,-4.1 -0.93,-7.58 -1.84,-9.98 3.42,-15.68zm3.63 -0.24c-3.93,-5.86 -5.13,-14.58 0.85,-19.35 7.35,8.37 4.09,11.41 -0.85,19.35zm11.28 -14.3l1.9 0.99c-1.72,3.35 -2.75,5.09 -6.31,6.48l2.57 -9.69 1.84 2.22zm-4.94 -6.45l-0.78 5.38 -1.94 -7.19 2.72 1.81zm-11.55 -2.68c1.29,10.87 1.14,19.63 -4.71,29.06 -3.1,-2.25 -1.03,-1.82 -4.06,-4.77 -3.06,1.03 -0.94,-0.4 -1.39,2.02 8.54,5.65 7.91,21.78 8.56,31.12l-2.68 -0.89 -0.1 0.92c6.4,6.71 4.69,11.69 8.57,17.09l0.5 -0.09c-0.11,-5.28 -0.42,-1.85 1.27,-3.06l7.41 8.48c-4.07,0.18 -5.19,0.38 -7.65,-2.83l-1.52 -0.15c-0.48,2.19 -3.53,0.79 -6.02,0.55 8.51,4.23 21.86,5.36 31.09,1.98l0.45 -3.05c-1.9,-2.48 -1.29,-1.83 -3.61,-3.83 0.13,5.42 0.19,8.1 -5.53,7.39l-0.78 -3.4c-1.6,0.43 -1.79,-0.92 -1.42,0.8 1.88,1.57 0.62,1.08 1.49,3.28l-5.27 -0.61c-1.63,-3.66 -1.65,-4.17 -0.59,-7.95l1.72 1.41 0.5 0.03c-1.35,-4.5 -4.13,-8.53 -4.4,-12.54 -0.21,-3.01 -0.01,-4.45 0.79,-7.29 1.29,-4.55 0.84,-4.5 4.45,-5.67l-2.37 -1.55c-3.07,2.73 -1.52,2.65 -3.7,5.56 -8.87,-11.54 -3.75,-13.95 3.18,-22.03l0.24 -0.13 -3.56 0.98c-2.45,3.02 -0.23,1.73 -3.42,3.58 -1.44,-9.79 1.67,-17.27 12.72,-17.38l0 -0.64c-4.01,-1.06 -1.3,1.54 -3.18,-1.74 3.68,-1.73 0.76,-1.24 4,-0.84l0.62 -0.02 0.71 -1.96c0.98,-1.98 1.18,-1.66 -0.81,-0.77 -3.2,-0.88 -0.71,0.65 -3.84,-2.96 -2.35,-2.73 -1.35,-0.54 -2.01,-3.88 -0.05,-1.7 1.78,-1.49 -0.28,-1.49 0,-1.64 0.22,-1.08 -1.38,-0.22l-2.44 0.17 0.23 -2.39c-0.17,-1.87 0.46,-2.92 -2.56,-2.59l-2.51 0.21c0.04,0.1 0.14,1.38 0.71,1.95l-5.38 4.32 -0.26 -9.86c-2.8,3.04 -1.37,4.6 -1.78,5.68z"/>
   <polygon class="fil2" points="153.65,382.42 148.36,378.35 97.1,429.6 112.87,430.01 "/>
   <path class="fil2" d="M42.11 285.05c1.95,3.68 4.01,5.74 6.67,9.27 11.9,0.36 35.47,-7.02 49.29,-8.24l-1.06 -7.28c-7.02,-0.12 -48.77,4.38 -54.9,6.25z"/>
   <path class="fil2" d="M286.1 94.09l7.7 1.06 8.68 -47.33c-3.21,-2.34 -6.48,-6.51 -10.43,-7.63l-5.95 53.9z"/>
   <path class="fil2" d="M85.59 134.85c8.35,5.42 35.83,25.23 41.5,27.51l3.75 -5.37c-1.97,-2.18 -41.32,-33.22 -43.13,-33.99l-2.12 11.85z"/>
   <polygon class="fil2" points="292.26,475.93 302.53,468.65 293.65,421.02 286.1,421.92 "/>
   <polygon class="fil2" points="431.72,286.06 481.43,294.96 487.86,284.99 432.88,278.7 "/>
   <path class="fil2" d="M126.82 84.93c0.33,3.42 33.79,40.19 34.12,42.51l6.11 -4.11c-2.82,-6.09 -10.21,-13.47 -13.7,-19.4 -3.59,-6.09 -10.03,-14.88 -14.13,-20.3l-12.4 1.3z"/>
   <path class="fil2" d="M403.79 353.87c-3.17,1.98 -3.09,3 -4.89,5.94l43.23 32.99 1.96 -11.14c-1.21,-1.94 -35.77,-25.1 -40.3,-27.79z"/>
   <path class="fil2" d="M153.21 412.51c4.51,-6.39 9.36,-12.69 13.76,-19.59l-6.35 -4.57c-3.98,6.66 -18.52,22.48 -25.85,32.41 -2.48,3.36 -6.15,6.92 -8.48,10.37l12.41 1.49 14.51 -20.11z"/>
   <path class="fil2" d="M362.98 123.21l6.44 4.57c4.04,-8.71 33.08,-38.66 33.62,-42.84l-11.81 -1.46c-5.9,8.83 -23.72,31.38 -28.25,39.73z"/>
   <polygon class="fil2" points="131.29,359.48 126.26,353.83 85.65,381.2 87.79,393.03 "/>
   <path class="fil2" d="M227.28 47.83l8.98 46.7 7.18 -0.36 -5.69 -53.86c-2.79,0.66 -7.37,5.56 -10.47,7.52z"/>
   <path class="fil2" d="M391.23 432.65l12.34 -1.46c-2.68,-3.69 -6.13,-7.27 -8.89,-10.91 -4.28,-5.63 -23.78,-30.1 -26.6,-31.81l-5.01 4.67 28.16 39.51z"/>
   <polygon class="fil2" points="41.62,231.34 97.03,237.32 97.92,230.55 49.14,221.21 "/>
   <path class="fil2" d="M399.16 156.87l3.51 5.56 41.61 -27.32 -2.21 -12.02c-8.98,7.99 -38.1,27.91 -42.91,33.78z"/>
   <polygon class="fil2" points="243.8,422.04 236.31,421.23 227.71,468.57 237.69,475.86 "/>
   <polygon class="fil2" points="432.06,230.25 432.71,237.2 488.05,231.52 480.67,221.56 "/>
   <polygon class="fil2" points="428.11,302.15 468.62,313.15 474.25,303.95 429.76,294.42 "/>
   <polygon class="fil2" points="302.42,96.94 309.93,98.68 321.59,58.64 311.74,53.81 "/>
   <path class="fil2" d="M150.22 81l23.68 36.88 6.81 -2.97c-0.66,-3.82 -16.91,-31.85 -20.01,-36.14l-10.48 2.23z"/>
   <path class="fil2" d="M349.17 114.79l6.59 3.3 23.84 -36.74 -10.35 -2.66c-2.53,3.07 -19.61,33.24 -20.08,36.1z"/>
   <path class="fil2" d="M428.5 214.27l1.27 7.15 44.37 -9.09 -4.92 -9.09c-2.96,0.02 -36.32,9.42 -40.72,11.03z"/>
   <polygon class="fil2" points="55.43,212.21 99.98,221.55 101.52,214.31 61.34,202.88 "/>
   <path class="fil2" d="M180.97 401.48l-5.92 -3.15c-3.8,3.27 -21.7,31.08 -25.18,36.97l11.26 1.67 19.84 -35.49z"/>
   <polygon class="fil2" points="408.13,346.3 446.06,369.82 449.12,359.75 412.44,339.95 "/>
   <path class="fil2" d="M303.22 418.96c-0.98,2.7 7.33,38.64 8.92,43.19l9.37 -5.04 -11.98 -39.54 -6.31 1.39z"/>
   <path class="fil2" d="M408.65 170.26l3.49 5.73 36.88 -19.64 -2.82 -10.15c-6.16,3.51 -12.49,8.16 -18.77,11.52 -3.45,1.85 -16.35,10.02 -18.78,12.54z"/>
   <polygon class="fil2" points="55.83,303.73 60.82,313.11 101.65,301.62 99.63,294.75 "/>
   <path class="fil2" d="M80.74 156.41l36.75 19.75 3.99 -5.71 -18.43 -12.32c-2.96,-1.52 -6.44,-3.9 -9.57,-5.75 -2.65,-1.57 -6.73,-4.2 -9.3,-5.99l-3.44 10.02z"/>
   <polygon class="fil2" points="208.67,58.79 219.94,98.58 227.1,97.13 218.01,53.66 "/>
   <polygon class="fil2" points="227.34,418.75 219.82,417.96 208.78,457.15 217.94,462.43 "/>
   <path class="fil0" d="M242.71 393.18c-9.53,7.55 -20.28,0.55 -16.9,-9.53 1.27,-3.81 6.83,-6.9 11.1,-6.35 6.34,0.83 3.02,5.28 11.65,5.56 -3.04,-14.58 -28.06,-13.58 -27.95,4.56 0.1,17.6 26.31,17.66 27.87,2.85 -2.42,-1.4 -5.69,-2.11 -8.6,-2.74 -0.93,-0.2 -4.02,-0.98 -4.82,-1.06 -4.82,-0.45 -2.04,-0.26 -3.77,0.93 0.22,7 4.48,1.33 11.42,5.78z"/>
   <polygon class="fil2" points="369.24,437.42 380.08,435.24 354.85,398.28 348.91,401.81 "/>
   <path class="fil2" d="M80.97 359.6l2.9 10.22c4.96,-3.44 13.67,-8.99 18.81,-11.78 5.44,-2.95 13.66,-9.53 18.83,-11.64l-3.7 -6.24 -36.84 19.44z"/>
   <path class="fil2" d="M74.4 176.05c10.29,1.97 25.92,12.62 36.47,14.47l2.44 -6.94 -36.07 -17.75 -2.84 10.22z"/>
   <path class="fil0" d="M309.01 372.91c11.37,-7.57 20.89,12.77 9.53,17.31 -11.52,4.61 -20.55,-9.97 -9.53,-17.31zm18.4 13.53c2.39,-7.24 -0.97,-15.93 -7.86,-18.28 -6.99,-2.38 -16.2,0.16 -18.99,7.08 -7.56,18.73 21.01,28.87 26.85,11.2z"/>
   <path class="fil2" d="M66.2 321.97l4.24 9.28c5.17,-1.85 34.36,-12.97 36.1,-14.63l-2.27 -6.39 -38.07 11.74z"/>
   <path class="fil0" d="M191.95 152.83c-11.12,-2.53 -20.01,-9.75 -25.29,-5.32 3.42,7.84 13.21,15.25 15.37,22.34l3.85 -2.36c-0.78,-2.78 -9.06,-12.71 -11.39,-15.93 32.38,10.97 29.87,10.05 13.54,-11.48 -4.89,-6.44 -3.57,-4.42 -6.25,-4.17 -1.85,2.87 -3.03,0.43 3.56,8.74 1.61,2.03 5.01,6.78 6.61,8.18z"/>
   <path class="fil2" d="M416.83 331.47c2.77,2.83 30.25,16.33 35.6,18.44l2.86 -9.33 -35.76 -15.31 -2.7 6.2z"/>
   <path class="fil2" d="M334.28 409.47c3.22,7.26 11.85,30 15.77,34.39l9.12 -3.43 -18.81 -34.76 -6.08 3.8z"/>
   <path class="fil2" d="M171.92 74.62l-0.53 1.54 17.77 34.15 6.31 -3.05c-1.45,-5.41 -13.09,-32.94 -16.04,-35.25l-7.51 2.61z"/>
   <path class="fil2" d="M334.51 107.13l5.92 3.21 18.62 -34.59 -8.62 -3.65c-2.78,2.08 -14.96,30.23 -15.92,35.03z"/>
   <path class="fil2" d="M331.01 451.73l8.51 -3.3c-0.04,-4.58 -11.42,-28.93 -13.83,-35.89l-7.55 1.88 12.87 37.31z"/>
   <path class="fil0" d="M298.15 120.99c14.19,-3.01 16.16,16.73 4.52,18.89 -13.58,2.51 -15.97,-16.45 -4.52,-18.89zm-2.66 -3.84c-17.13,6.3 -8.65,32.69 9.92,26.61 7.31,-2.39 10.66,-10.17 8.76,-17.9 -1.96,-7.98 -11.17,-11.46 -18.68,-8.71z"/>
   <path class="fil0" d="M192.27 385.99c5.43,2.22 5.67,-7.3 11.31,-16.52 2.05,12.01 1.71,23.22 6.86,24.81l11.27 -21.69c1.5,-5.83 0.4,-2.07 -0.81,-3.71 -3.95,-1.34 -3.75,3.3 -5.78,7.01 -1.67,3.07 -2.97,6.91 -4.62,9.33l-3.3 -22.35 -3.51 -1.95c-2.2,2.14 -9.93,17.35 -11.58,21.72 -1.41,3.7 -1.11,0.6 0.16,3.35z"/>
   <polygon class="fil2" points="65.8,194.07 104.21,205.74 106.82,199.12 70.81,185.04 "/>
   <path class="fil2" d="M74.62 340.28l2.77 9.6c5.61,-2.31 32.74,-15.36 35.7,-18.5l-2.51 -5.72 -35.96 14.62z"/>
   <polygon class="fil2" points="318.29,101.25 325.8,103.65 339.93,68.27 331.03,64.37 "/>
   <polygon class="fil2" points="416.78,183.63 419.12,190.48 455.34,175.82 452.53,166.16 "/>
   <polygon class="fil2" points="211.4,414.43 204.17,412.57 190.01,447.94 199.27,451.65 "/>
   <polygon class="fil2" points="195.59,408.86 189.06,405.77 171,440.49 180.56,444.03 "/>
   <polygon class="fil2" points="423.04,317.15 459.13,331.06 463.74,322.47 425.64,310.18 "/>
   <path class="fil2" d="M189.85 68.17l14.25 34.87c2.93,0.19 4.09,-0.38 7.09,-1.65l-11.87 -37 -9.47 3.78z"/>
   <polygon class="fil2" points="423.14,198.89 425.4,205.51 463.72,194.02 459.34,185.04 "/>
   <path class="fil0" d="M115.78 270.34l0.34 3.86 19.09 -2.64c-4.94,8.52 -17.48,10.26 -16.82,19.64 4.91,-0.27 10.75,-1.07 15.64,-1.91 15.04,-2.6 12.71,-1.45 12.02,-6.02l-19.97 2.81c1.62,-1.9 7.44,-7.31 9.46,-8.96 4.78,-3.88 8.24,-4.13 7.94,-10.64l-27.7 3.86z"/>
   <path class="fil0" d="M400.27 250.15l9.68 -0.09c0.3,4.48 0.41,5.02 -1.47,9.22l-5.78 -0.49c-2.72,-2.96 -2.66,-4.44 -2.43,-8.64zm-13.99 -3.36c0.42,4.47 -0.73,3.74 4.89,3.67 2.5,-0.03 4.51,-0.24 7.13,-0.13l-11.51 8.43 -0.2 5.02c4.44,-1.56 6.8,-4.22 10.65,-6.75 1.83,6.33 6.5,8.65 12.84,5.85 5.81,-2.58 4.35,-11.9 4.15,-17.26 -5.58,-0.46 -23.87,-0.83 -27.95,1.17z"/>
   <path class="fil0" d="M121.31 238.33c-0.31,-4.4 0.54,-5.43 3.28,-8.67l6.27 1.52 -0.15 8.75 -9.4 -1.6zm13.76 2.46l-2.21 -0.88 1.44 -0.39c12.2,-7.23 11.12,-2.14 12.57,-10.45 -4.39,1.03 -7.3,2.58 -10.92,4.97 -2.88,-3.92 -2.67,-10.75 -12.47,-8.33 -6.24,1.53 -6.73,10.03 -7.26,15.34 3.73,2.19 9.09,2.59 13.63,3.29l11.67 1.69c2.53,-0.43 0.57,0.13 2.47,-1.16 -0.39,-2.72 2.91,-3.01 -8.92,-4.08z"/>
   <path class="fil0" d="M388.08 207.06c4.03,4.74 2.41,9.34 -4.68,8.8l-2.64 -6.41 7.32 -2.39zm4.12 -1.4c2.02,-1.23 4.45,-2.47 6.83,-2.08 2.93,5.81 -2.55,11.18 -6.83,2.08zm-16.41 1.91c0.51,4.85 2.28,10.61 7.19,12.15 6.72,2.11 8.43,-2.01 11.66,-5.83 5.06,1.02 4.92,-0.13 9.17,-2.14 0.74,-5.73 0.97,-9.19 -3.02,-13.84 -4.74,0.87 -21.16,6.98 -25,9.66z"/>
   <path class="fil0" d="M235.12 129.27c-0.28,-3.11 -1.8,-7.22 -0.67,-9.62 8.84,-4.54 16.49,7.1 0.67,9.62zm-6.02 -13c-0.33,3.62 1.06,10.35 1.75,14.2 2.09,11.66 1.22,12.06 5.42,12.28 2.13,-3.4 0.97,-1.19 -0.53,-11.12 6.31,4.45 7.01,9.33 15.46,8.45 -3.51,-7.28 -5.19,-3.5 -8.21,-9.33 7.27,-3.19 5.58,-7.12 4.32,-13.64 -8.05,-3.38 -9.49,-2.89 -18.21,-0.84z"/>
   <path class="fil2" d="M309.01 372.91c-11.02,7.34 -1.99,21.92 9.53,17.31 11.36,-4.54 1.84,-24.88 -9.53,-17.31z"/>
   <path class="fil0" d="M328.26 363.83c3.85,-1.59 4.35,-2.68 8.58,-2.96 3.06,3.36 3.04,1.6 2.87,6.55 -1.86,2.28 -4.19,4.07 -6.73,4.79l-4.72 -8.38zm-5.78 -1.18l14.13 22.9 3.77 -1.1c-0.35,-3.35 -3.79,-7.31 -5.41,-10.52 2.7,1.34 5.28,2.3 8.18,3.31 6.48,2.28 3.75,1.72 9.46,-0.01 -2.6,-2.54 -7.82,-4.44 -11.31,-5.48 0.07,-0.17 7.29,-10.28 -2.41,-14.41 -5.92,-2.52 -11.84,2.64 -16.41,5.31z"/>
   <path class="fil2" d="M298.15 120.99c-11.45,2.44 -9.06,21.4 4.52,18.89 11.64,-2.16 9.67,-21.9 -4.52,-18.89z"/>
   <path class="fil0" d="M263.23 383.39l2.97 8.28 -6.72 -0.21 3.75 -8.07zm-13.34 20.12c8.61,1.42 3.65,-4.53 9.33,-7.52l8.85 0.18c1.33,5.74 1.94,8.14 7.8,7.76l-10.3 -27.37 -4.82 0.11 -10.86 26.84z"/>
   <path class="fil0" d="M280.64 132.7c-8.24,-0.3 -7.61,3.99 -14.39,2.69 -10.19,-1.96 -9.57,-17.93 0.88,-19.18 8.13,-0.96 6.27,4.61 13.72,3.23 -2.35,-11.2 -25.57,-11.02 -26.8,4.85 -1.24,15.87 19.12,22.21 26.59,8.41z"/>
   <path class="fil4" d="M289.69 188.78c4.67,-0.63 8.49,-1.64 11.8,1.78 -3.91,0.22 -8.49,0.16 -11.8,-1.78zm18.04 -2.97c2.83,1.18 5.2,2.76 6.97,5.19 -6.34,-1.81 -4.74,-0.06 -6.97,-5.19zm-3.25 2.84c-9.84,-5.97 -13.38,-4.11 -23.55,-0.63 4.59,8.96 18.48,6.1 27.37,6.3l-2.43 -4.06c2.96,1.84 2.62,3.16 6.95,3.95 2.84,0.51 4.71,1.14 7.29,1.67 -2.93,-9.21 -11.36,-14.05 -20.78,-15.83l5.15 8.6z"/>
   <path class="fil0" d="M391.91 298.34l6.83 5.2c1.66,1.65 -0.04,0.92 1.13,0.82l-9.44 0.26 1.48 -6.28zm-3.76 -3.48l-2.84 9.84c-6.51,0.19 -8.81,-1.9 -9.42,4.49l28.6 -0.68c3.92,-4.86 -3.1,-8.22 -7.25,-12.25 -2.11,-2.04 -11.57,-9.48 -13.96,-10.46 -1.02,5.22 0.4,5.83 4.87,9.06z"/>
   <path class="fil6" d="M337.71 298.28l8.33 -9.03c-0.09,7.55 -1.09,8.81 -8.33,9.03zm1.98 -5.37c1.18,-12.12 0.15,-22.7 10.43,-30.75 4.25,14.65 -0.45,21.84 -10.43,30.75zm5.72 -35.6l-0.94 0c0.15,3.72 -0.1,7.76 -2.59,10.89 -1.51,1.89 -0.73,0.89 -2.44,1.84 -1.24,-3.03 -0.72,-2.99 -3.06,-5.19l-2.36 1.34c3.38,0.68 2.89,1.3 4.11,5.1 0.82,2.55 1.19,4.3 1.14,7.03 -0.09,4.93 -3,8.9 -4.44,13.42l1.41 -0.21 0.97 -1.16c0.42,2.23 1.38,8.31 -2.48,8.31 -5.91,0.01 -1.43,0.5 -3.13,-2.15l-0.42 0.68 -4.65 1.28 -0.34 0.68c11.84,0.52 15.72,0.5 26.69,-3.18l-6.55 0.52c4.16,-2.58 6.88,-2.49 9.33,-7.15l-0.2 -0.1 -8.22 4.7c2.36,-8.27 2.4,-10.36 7.27,-17.4l0 -0.9c-3.15,-1.44 -1.71,-0.3 -1.56,-4.91 0.06,-2.16 0.12,-3.6 0.1,-5.82 -0.05,-4.93 0.82,-6 1.58,-10.49l-0.43 -0.14c-1.79,2.72 -5.07,6.02 -8.56,7.25l-0.23 -4.24z"/>
   <path class="fil0" d="M134.85 316.76c-7.59,14.63 7.54,25.62 19.88,18.85 11.72,-6.42 8.91,-25.25 -7.67,-26.16 2.86,8.58 6.09,3.94 9.22,9.61 5.23,9.48 -10.2,20.1 -17.37,9.81 -4.91,-7.05 2.24,-7.66 -4.06,-12.11z"/>
   <path class="fil0" d="M139.4 212.02c-3.03,-0.86 -1.57,-0.78 -3.9,-3.14 -2.22,-2.26 -1.74,-0.92 -3.7,-3.5l9.9 0.78 -2.3 5.86zm-13 -9.23c-1.41,5.79 -0.02,3.18 3.62,6.76l11.23 10.79c0.66,0.74 2.14,2.37 2.86,2.92 3.32,2.51 2.05,1.32 3.76,0.99 1.75,-5.33 -1.22,-4.29 -4.65,-9.03l3.79 -9.14c5,0.28 9,1.79 9.44,-3.78 -5.24,-0.61 -26.42,-1.56 -30.05,0.49z"/>
   <path class="fil0" d="M208.38 129.97c0.01,1.06 4.69,4.35 6.37,6.52 -2.15,1.46 -3.68,2.87 -6.38,2.33l0.01 -8.85zm-4.69 -4.7l0.8 28.63 3.88 -1.06 0.35 -8.4 9.24 -4.46 6.45 6.11c3.58,-2.12 1.41,-0.25 3.78,-3.11 -7.26,-3.62 -14.44,-17.27 -21.98,-19.73l-2.52 2.02z"/>
   <path class="fil0" d="M358.31 171.69c-1.54,-6.33 -7.36,-2.2 -11.33,-5.97 -8.06,-7.65 2.44,-21.86 12.42,-15.32 7.47,4.89 0.76,7.96 8.72,10.59 0.99,-16.15 -14.6,-22.2 -24.85,-11.88 -9.26,9.31 -1.11,26.56 15.04,22.58z"/>
   <path class="fil0" d="M412.81 234.52c-5.56,-3.68 -18.19,5.72 -24.75,0.25l-0.55 -4.41c7.72,-4.39 18.06,-3.46 22.61,-6.59l-0.29 -2.37c-1.28,-0.53 -30.77,-1.29 -26.33,13.75 2.16,7.31 8.53,6.37 14.61,5.32 3.03,-0.53 6.03,-1.14 9.04,-1.66 4.78,-0.82 5.73,-0.07 5.66,-4.29z"/>
   <path class="fil0" d="M389.91 338.96c1.56,-4.1 2.94,-1.94 -7.93,-8.36 -4.3,-2.53 -7.22,-3.12 -9.83,-7.29l1.66 -4.6c6.6,-1.81 15.56,7.24 21.98,9.22l2.36 -2.64c-1.99,-2.3 -10.45,-6.86 -13.74,-8.58 -5.52,-2.88 -10.45,-5.93 -15.2,0.84 -6.73,9.59 5.94,14.51 13.16,18.52 4.12,2.29 3.88,4.05 7.54,2.89z"/>
   <path class="fil0" d="M339.98 350.35c1.15,5.67 3.1,4.6 8.62,11.78 2.33,3.05 7.38,8.34 10.44,10.02 7.81,-9.68 10.83,-4.36 8.77,-12.28 -3.61,1.08 -6.67,4.27 -9.47,6.02l-4.71 -4.98c2.74,-2.87 5.85,-4.29 6.68,-7.6 -3.22,-3.02 -0.96,-2.88 -9.26,4.06 -2.51,-1.8 -4.26,-3.91 -4.98,-6.62 3.77,-1.28 5.86,-2.63 6.85,-6.36l-1.43 -1.45c-2.15,0.16 -3.51,1.37 -5.38,3.13 -3.23,3.04 -1.97,2.16 -6.13,4.28z"/>
   <path class="fil0" d="M176.79 364.64c-3.34,2.56 -2.3,2.65 -6.89,2.05 -2.96,-6.63 -0.05,-3.42 -0.92,-8.28l-2.36 -0.58c-3.03,3.43 -2.63,6.99 -0.56,10.81 6.61,4.86 9.28,2.82 14.79,-1.72 1.62,-8.66 -1.36,-7.42 -3.17,-13.96 2.52,-2.87 2.18,-3.55 6.12,-2.06 2.32,5.19 -1.95,5.44 3.67,7.04 4.99,-7.71 -2.37,-14.85 -10.18,-11.33 -8.01,3.61 -0.48,12.59 -0.5,18.03z"/>
   <path class="fil0" d="M289.71 379.03c3.15,6.29 1.52,8.36 -5.79,8.11l-1.06 -7.87 6.85 -0.24zm-4.46 12.62c9.14,-1.46 13.94,-5.71 8.7,-15.1 -5.82,-2.46 -10.03,-1.63 -16.07,-0.1 -0.2,4.57 1.49,9.25 2.24,13.84 2.19,13.27 0.3,12.38 4.93,12.68 1.1,-1.44 1.94,1.52 0.74,-5.77 -0.36,-2.24 -0.55,-3.23 -0.54,-5.55z"/>
   <path class="fil0" d="M144.4 290.29c-1.09,3.54 1.34,6.39 2.48,10.17l-7.2 2.06c-2.22,-3.84 -1.55,-9 -6.01,-8.48 -1.96,4.62 1.09,3.26 1.03,10.14l-6.67 2.05c-1.55,-4.46 -1.28,-9.18 -5.73,-8.36 -0.49,1.09 -2.55,-0.93 0.72,6.62 1.07,2.47 1.75,4.58 2.51,7.16l26.53 -8.47 -4.36 -13.44 -3.3 0.55z"/>
   <path class="fil0" d="M371.43 183.05c-3.11,2.61 -4.18,2.5 -7.43,0.32 -1.49,-6.38 2.09,-3.57 -0.49,-8.36 -4.34,1.33 -4.52,3.08 -4.45,7.69 3.92,8.92 10.53,8.38 16.94,2.33 1.36,-8.37 -1.25,-7.38 -1.42,-12.43 1.66,-1.83 3.51,-3.72 5.92,-1.19 2.68,2.81 -1.25,2.64 1.18,7.7l3.99 -2.73c0.6,-7.79 -4.78,-13.16 -11.95,-9.35 -6.36,3.39 -1.11,11.02 -2.29,16.02z"/>
   <path class="fil0" d="M384.42 282.5l3.54 1.32 0.92 -2.6 1.04 -7.02 7.4 1.1c-2.21,11.74 -2.1,8.62 0.6,10.32 2.37,-1.13 1.53,2.02 2.58,-3.77 0.52,-2.91 0.01,-2.87 1.25,-5.78l7.01 0.94 -0.94 9.84c4.88,0.34 4.14,0.93 4.83,-4.46 0.4,-3.16 0.92,-5.71 0.78,-8.82l-27.16 -4.26 -1.85 13.19z"/>
   <path class="fil4" d="M289.19 326.74c1.53,-3.95 4.26,-5.61 8.07,-7.06 -1.71,3.27 -4.48,5.55 -8.07,7.06zm-6.76 -5.78c-0.07,-4.08 1.38,-4.64 3.99,-7.59 0.29,3.46 -0.57,6.63 -3.99,7.59zm-6.37 1.69l4.44 1.59 0.67 2.18 3.7 -1.86 -0.58 4.42c8.06,1.2 15.46,-4.68 16.34,-12.4 -7.24,-0.29 -8.61,0.25 -13.46,4.57 1.21,-3.79 2.04,-5.42 0.75,-9.4 -7.28,0.03 -9.72,4.62 -11.86,10.9z"/>
   <path class="fil4" d="M232.56 319.66c4.38,1.76 6.54,2.68 8.11,7.06 -7.19,-2.78 -4.08,-3.86 -8.11,-7.06zm10.8 -6.31c2.61,2.9 3.96,3.6 4.19,7.71 -3.58,-1.01 -4.52,-4.1 -4.19,-7.71zm5.32 13.08c1.83,-2.97 1.67,-1.9 4.65,-4.08l-0.83 -2.64c-1.39,-4.8 -5.3,-7.82 -10.49,-8.01 -1.33,3.71 -0.68,5.95 0.71,9.53 -4.88,-4.33 -6.14,-4.95 -13.47,-4.64 1.08,7.81 8.08,13.76 16.49,12.33l-0.73 -4.29 3.67 1.8z"/>
   <path class="fil4" d="M173.13 236.68c-0.9,-3.63 -0.5,-5.77 1.53,-8.65 0.49,3.44 0.53,6.27 -1.53,8.65zm-3.1 5.85c3.03,2.95 0.96,2.52 4.06,4.77 5.85,-9.43 6,-18.19 4.71,-29.06 -1.37,-3.83 0.03,-0.95 -1.84,-2.15 -8.34,7.3 -6.57,17.19 -6.93,26.44z"/>
   <path class="fil4" d="M333.83 285.28c-2.36,-4 -1.81,-8.79 1.41,-10.59 1,3.48 2.22,8.53 -1.41,10.59zm1 6.46c1.44,-4.52 4.35,-8.49 4.44,-13.42 0.05,-2.73 -0.32,-4.48 -1.14,-7.03 -1.22,-3.8 -0.73,-4.42 -4.11,-5.1 -5.14,11.14 -11.63,15.17 -2.1,27.68 3.22,-1.17 0.59,0.55 2.91,-2.13z"/>
   <path class="fil4" d="M195.79 285.41c-2.58,-3.94 -2.75,-6.63 -0.66,-10.96 3,3.23 3.07,7.24 0.66,10.96zm-0.76 6.33l2.97 2.08c9.51,-14.11 3.06,-15.5 -2.13,-27.58 -3.61,1.17 -3.16,1.12 -4.45,5.67 -0.8,2.84 -1,4.28 -0.79,7.29 0.27,4.01 3.05,8.04 4.4,12.54z"/>
   <path class="fil4" d="M356.71 238.91c-1.75,-2.79 -2.81,-8.47 -1.83,-11.78 3.73,2.99 3.02,7.55 1.83,11.78zm-5.28 -23.21c-1.24,10.93 -2.48,22.45 4.4,31.63 7.66,-5.52 4.37,-28.54 -4.4,-31.63z"/>
   <path class="fil4" d="M181.42 268.41c1.32,4.64 3.28,1.61 3.43,11.29 -4.56,-2.18 -3.79,-6.23 -3.43,-11.29zm-1.62 -6.21c-4.45,12.66 1.19,23.67 10.41,30.76 -0.76,-12.63 -0.14,-22.24 -10.41,-30.76z"/>
   <path class="fil4" d="M344.99 279.56c0.1,-4.85 0.12,-7.7 3.56,-11.24 0.26,5.99 0.88,7.56 -3.56,11.24zm-5.3 13.35c9.98,-8.91 14.68,-16.1 10.43,-30.75 -10.28,8.05 -9.25,18.63 -10.43,30.75z"/>
   <path class="fil4" d="M357.18 266.04c-0.16,-5.79 1.61,-8.87 1.76,-11.86 0.59,4.29 0.43,9.14 -1.76,11.86zm-2.55 -11.6c-0.76,4.49 -1.63,5.56 -1.58,10.49 0.02,2.22 -0.04,3.66 -0.1,5.82 -0.15,4.61 -1.59,3.47 1.56,4.91 0.87,-4.28 2,-2.37 4.2,-5.95 4.99,-8.15 4.37,-16.49 2.21,-25.2 -3.16,2.18 -3.74,6.45 -6.29,9.93z"/>
   <path class="fil0" d="M321.49 126.28l3.88 3.31c-2.17,3.47 -3.56,7.57 -5.61,11.36 -2.61,4.81 -5.62,7.94 -1.23,10.88 4.54,-3.6 7.68,-14.99 11.48,-20.43 3.52,1.31 4.17,2.55 5.83,-1.23 -2.98,-3.12 -9.04,-5.58 -13.39,-6.74l-0.96 2.85z"/>
   <path class="fil4" d="M172.48 266.3c-0.97,-4.34 -2.94,-6.14 -1.42,-12.06 -0.16,1.11 2.21,6.65 1.42,12.06zm2.04 8.48l2.68 0.89c-0.65,-9.34 -0.02,-25.47 -8.56,-31.12 -0.89,5.89 -2.24,11.64 -0.48,17.72 1.39,4.78 5.72,9.44 6.36,12.51z"/>
   <path class="fil0" d="M136.05 183.05c0.28,4.34 6.72,6.03 10.23,8.34 3.4,2.24 9.03,6.39 12.51,7.46 3.11,-2 2.23,-2.28 4.25,-5.23 2.32,-3.38 4.31,-3.57 1.06,-6.74 -3.32,-0.06 -4.19,3.33 -6.27,6.24 -10.1,-3.93 -17.11,-14.39 -21.78,-10.07z"/>
   <path class="fil2" d="M262.54 218.53l-8.83 0.08 6.32 4.91 -1.87 7.54 6.78 -4 6.78 4.21 -1.91 -7.75 6.52 -4.59 -8.51 -0.55 -2.56 -7.21c-1.97,2.6 -2.17,3.73 -2.72,7.36z"/>
   <path class="fil4" d="M228.35 190.61c2.6,-3.49 7.73,-2.38 11.84,-1.84 -3.77,1.91 -7.62,2.01 -11.84,1.84zm-6.52 3.9c8.59,-0.54 22.28,2.58 27.06,-6.41 -9.42,-3.43 -23.35,-5.6 -27.06,6.41z"/>
   <path class="fil0" d="M115.73 262.91c4.9,0.11 3.77,0.46 3.82,-4.88l23.64 0.34 0.29 -4.02 -23.03 -0.77c-2.23,-4.99 1.44,-4.15 -3.75,-4.9 -2.19,3.12 -1.68,10.09 -0.97,14.23z"/>
   <path class="fil4" d="M255.4 320.9c10.13,-1.55 9.62,-0.84 19.23,0.02l4.75 -8.03c-17.19,1.39 -4.84,4.06 -28.76,-0.2l4.78 8.21z"/>
   <path class="fil4" d="M217.11 180c2.83,-5.07 5.79,-5.49 11,-6.11l-11 6.11zm-4.08 6c2.26,-0.86 10.46,-5.48 12.89,-6.92 5.31,-3.13 7.76,-4.24 10.01,-10.26 -12.09,1.35 -22.11,3.88 -22.9,17.18z"/>
   <path class="fil4" d="M301.89 173.71c4.12,0.09 9.53,2.47 10.87,6.34 -2.09,-1.08 -10.37,-6.2 -10.87,-6.34zm14.96 12.29c-0.57,-7.87 -0.76,-8.67 -7.2,-12.66 -4.57,-2.83 -10.36,-3.92 -15.72,-4.52 2.57,7.33 17.6,15.32 22.92,17.18z"/>
   <path class="fil4" d="M292.7 177.72c-4.69,-0.13 -6.33,-0.52 -10.26,-3.1 4.29,-0.24 7.87,-0.62 10.26,3.1zm6.6 6.18c-0.6,-3.03 -4.42,-10.22 -7.12,-11.23 -4.11,-1.53 -12.74,-1.28 -15.52,1.42 3.48,5.55 16.08,10.04 22.64,9.81z"/>
   <path class="fil4" d="M237.19 177.71c2.38,-3.77 5.93,-3.35 10.28,-3.1 -3.91,2.38 -5.67,2.89 -10.28,3.1zm-6.64 6.25c6.88,0.08 18.9,-4.31 22.68,-9.87 -2.82,-2.56 -11.37,-3.02 -15.34,-1.32 -3.3,1.4 -6.71,7.71 -7.34,11.19z"/>
   <path class="fil4" d="M196.23 323.26c3.4,0.5 4.36,1.73 6.2,4.33 -3.81,-0.59 -4.22,-1.25 -6.2,-4.33zm-7.28 -6.26c4.03,4.89 6.57,1.5 12.19,4.5l-8.88 0.11c2.5,5.08 5.54,9.19 13.38,9.11 3.58,-0.03 3.73,-0.53 5.11,-1.67 -3.7,-2.75 -5.53,-5.83 -9.14,-7.01 2.91,-1.87 2.3,-1.28 0.41,-5.52l-13.07 0.48z"/>
   <path class="fil4" d="M211.54 202.97c1.71,-3.13 4.18,-3.88 7.12,-3.48 -3.01,2.52 -3.09,2.73 -7.12,3.48zm2.68 6.24c2.61,-2.53 3.52,-4.21 6.61,-6.52 3.8,-2.84 4.62,-2.15 5.94,-7.05 -6.48,0.6 -16.05,-0.42 -19.43,6.19 1.46,3.29 3.59,6.03 6.88,7.38z"/>
   <path class="fil4" d="M189.4 264.42c-1.25,-3.09 -0.56,-8.59 2.77,-9.75 0.42,3.37 -0.49,7.14 -2.77,9.75zm4.1 0.27c0.89,-7.38 5,-3.19 2.13,-15.36l-2.65 -1.11c-6.93,8.08 -12.05,10.49 -3.18,22.03 2.18,-2.91 0.63,-2.83 3.7,-5.56z"/>
   <path class="fil4" d="M340.53 264.43c-2.01,-2.64 -3.21,-6.12 -3.1,-9.88 3.51,1.54 4.24,6.23 3.1,9.88zm-4.15 0.42c2.34,2.2 1.82,2.16 3.06,5.19 1.71,-0.95 0.93,0.05 2.44,-1.84 2.49,-3.13 2.74,-7.17 2.59,-10.89 -3.16,-4.58 -4.12,-7.45 -9.85,-8.86 -2.73,14.32 0.51,7.13 1.76,16.4z"/>
   <path class="fil4" d="M310.98 199.23c3.78,0.34 5.37,0.41 7.3,3.72 -5.86,-0.93 -3.43,-1.55 -7.3,-3.72zm-7.9 -3.63c2.63,6.87 0.75,3.4 6.51,7.55 3.18,2.29 3.73,4.15 6.08,6.02 3.3,-1.43 6.11,-4.69 6.77,-8.33 -5.81,-5.36 -12,-4.4 -19.36,-5.24z"/>
   <path class="fil0" d="M182.88 380.36c2.55,-1.61 14.87,-19.73 15.9,-22.76l-4.14 -2.2c-1.59,6.35 -13.02,16.27 -14.12,23.48l2.36 1.48z"/>
   <path class="fil4" d="M334.3 239.59c4.56,1.21 6.85,3.06 7.22,7.88l-7.22 -7.88zm9.36 13.1c2.1,-9.66 -3.02,-18.24 -13.61,-17.25 -0.4,5.07 0.95,7.57 4.57,10.6l9.04 6.65z"/>
   <path class="fil4" d="M188.22 247.47c1.46,-5.21 1.85,-6.4 7.25,-7.93l-7.25 7.93zm5 0.62c4.25,-5.22 6.05,-3.64 6.89,-11.97l-1.15 -0.85c-11.05,0.11 -14.16,7.59 -12.72,17.38 3.19,-1.85 0.97,-0.56 3.42,-3.58l3.56 -0.98z"/>
   <path class="fil4" d="M353.51 285.48c0.78,-4.22 0.27,-4.56 3.78,-6.98 -0.52,4.09 -0.63,4.67 -3.78,6.98zm1 -8.92c-4.87,7.04 -4.91,9.13 -7.27,17.4l8.22 -4.7c0.77,-2.72 3.53,-5.06 4.57,-8.63 0.93,-3.21 1.49,-7.37 0.97,-10.42l-6.49 6.35z"/>
   <path class="fil4" d="M221.93 185.94c-0.49,4.44 -2.52,4.01 -7.04,4.72l7.04 -4.72zm-12.28 10.11c4.89,-1.5 9.94,-1.57 13.65,-5.31 2.01,-2.02 6.03,-8.09 6.91,-10.79 -10.34,1.68 -16.67,6.8 -20.56,16.1z"/>
   <path class="fil4" d="M172.48 278.4c3.92,2.98 3,3.52 4.15,8 -2.6,-4.1 -3.23,-1.3 -4.15,-8zm10.51 14.39c-3.88,-5.4 -2.17,-10.38 -8.57,-17.09l-6.16 -5.35c0.48,4.89 0.99,11.59 3.93,15.63 1.53,2.09 7.7,8.56 10.8,6.81z"/>
   <path class="fil0" d="M328.14 156.88c4.06,1.89 3.43,1.78 6.18,-2.42l7.94 -13.16c2.04,-3.02 3.91,-2.68 2.55,-6.92 -4.4,-1.04 -3.2,-0.3 -5.19,3.45 -1.5,2.84 -10.8,14.64 -11.48,19.05z"/>
   <path class="fil7" d="M304.78 317.12c2.43,-1.73 3.48,-2.88 6.57,-1.77 -3.3,2.36 -2.76,1.8 -6.57,1.77zm10.98 -12.02c-2.92,1.14 -2.93,1.9 -4.86,4.82 0.51,2.02 -2.13,0.25 2.06,2.89 -6.48,0.1 -9.3,-0.51 -11.05,6.19 5.79,-0.03 10.52,-0.44 15.01,-4.87l-3.41 -1.17c8.6,0.35 25.73,7.73 31.22,-0.7 -9.19,3.4 -28.33,1.1 -32.48,-2.12 2.47,-3.65 2.42,-1.11 3.51,-5.04z"/>
   <path class="fil4" d="M205.66 190.24c-1.77,-3.42 0.68,-5.32 2.68,-7.99 0.49,3.71 0,5.45 -2.68,7.99zm0 8.31c5.83,-5.86 6.78,-12.92 6.31,-21.31 -8.2,0.33 -12.76,14.47 -6.31,21.31z"/>
   <path class="fil4" d="M232.15 341.91c-1.67,3.41 -5.91,2.94 -7.8,0.19 4.02,-1.28 3.76,-1.36 7.8,-0.19zm-14.6 -1c3.59,6.75 18.09,11.96 18.74,-0.72 -6.12,-2.78 -13.06,-3.48 -18.74,0.72z"/>
   <path class="fil4" d="M322.76 182.14c1.01,3.83 2.98,4.66 1.51,8.06 -1.43,-1.2 -1.68,-1.04 -2.41,-3.21 -1.66,-5.01 -0.04,-3.53 0.9,-4.85zm-4.88 -4.98c-0.51,7.67 0.6,16.24 6.34,21.56 6.23,-7.22 2.2,-20.48 -6.34,-21.56z"/>
   <path class="fil4" d="M297.73 341.88c3.59,-0.95 4.37,-1.37 7.42,0.56 -3.43,2.95 -4.98,2.49 -7.42,-0.56zm-3.32 3.81c7.13,3.43 15.2,1.71 18.03,-5.69 -8.33,-1.67 -10.06,-3.85 -18.97,0.16l0.94 5.53z"/>
   <path class="fil4" d="M309.53 328.77c3.55,-3.12 2.71,-3.12 7.65,-4.8 -1.85,2.84 -4.16,4.43 -7.65,4.8zm15.2 -9.69l-0.46 -0.45c-7.63,0.86 -16.88,7 -19.78,14.21 7.39,0.12 19.41,-6.94 20.24,-13.76z"/>
   <path class="fil4" d="M220.28 328.68c-3.43,-0.1 -5.86,-1.91 -7.57,-4.7 5.8,1.42 4.16,2.39 7.57,4.7zm-7.92 -7.37l-1.04 -0.69 -7.14 -2.18c2.69,7.48 12.78,14.8 21.2,14.34 -2.83,-5.81 -6.62,-9.69 -13.02,-11.47z"/>
   <path class="fil4" d="M349.76 248.33c0.86,3.24 1.2,3.95 -1.07,7.06l1.07 -7.06zm-4.35 8.98l0.23 4.24c3.49,-1.23 6.77,-4.53 8.56,-7.25 -1.73,-7.76 0.55,-5.78 -4.65,-12.48 -3.75,3.03 -3.51,10.4 -4.14,15.49z"/>
   <path class="fil4" d="M180.82 255.57c-2.55,-3.92 -1.07,-4.13 -0.3,-7.28l0.3 7.28zm-0.44 -13.66c-5.26,5.7 -4.35,8.1 -3.42,15.68 5.97,1.57 2.89,2.28 6.57,4.1 1.67,-2.87 0.67,-6.47 -0.1,-9.94 -0.96,-4.3 -0.46,-7.17 -3.05,-9.84z"/>
   <path class="fil4" d="M345.31 233.92c-1.91,-3.28 -1.78,-3.41 -0.38,-6.62 0.63,2.69 1.74,3.82 0.38,6.62zm-0.18 -11.7c-7.12,5.9 -4.05,13.59 0.83,19.49 3.67,-6.79 5.22,-13.6 -0.83,-19.49z"/>
   <path class="fil4" d="M288.41 336.18c3.36,-3.27 2.91,-3.41 8.08,-3.53 -2.51,3.06 -4.07,3.62 -8.08,3.53zm-3.64 1.7c8.23,1.37 14.58,-0.44 18.88,-7.85 -8.15,-0.45 -17.36,-2.21 -18.88,7.85z"/>
   <path class="fil4" d="M184.64 234.23c-1.56,-3.09 -0.77,-3.89 0.3,-6.92 1.6,3.75 1.22,3.17 -0.3,6.92zm-0.63 7.44c4.94,-7.94 8.2,-10.98 0.85,-19.35 -5.98,4.77 -4.78,13.49 -0.85,19.35z"/>
   <path class="fil4" d="M233.29 332.59c5.64,0.25 4.54,0.8 8.14,3.55 -4.14,0.22 -5.58,-0.45 -8.14,-3.55zm-7.05 -2.57c5.52,6.51 8.98,10.18 18.87,7.81 -1.69,-9.97 -10.74,-8.26 -18.87,-7.81z"/>
   <path class="fil4" d="M318.78 334.76c-3.31,2.08 -3.94,1.8 -7.45,0.3l7.45 -0.3zm-12.68 1.03c9.65,3.97 10.65,6.15 19.48,-0.43 -2.38,-3.48 -6.15,-3.67 -10.74,-3.22 -3.05,0.29 -6.75,1.95 -8.74,3.65z"/>
   <path class="fil4" d="M211.05 334.71l7.44 0.39c-3.57,1.16 -3.71,2.04 -7.44,-0.39zm2.2 4.74c2.85,-0.09 8.23,-2.2 10.19,-3.99 -7.2,-4.95 -11.38,-3.51 -19.16,-1.77 2.62,3.67 3.3,5.93 8.97,5.76z"/>
   <path class="fil8" d="M176.98 300.34l0.35 -2.24c15.25,2.89 16.06,2.29 31.16,1.37l9.11 10.77 -1.36 1.65 3.07 0.02c-0.88,-3.39 -8.63,-13.54 -11.24,-14.24 -9.23,3.38 -22.58,2.25 -31.09,-1.98 2.49,0.24 5.54,1.64 6.02,-0.55 -6.32,-0.59 -4.72,-3.64 -9.96,-5.36 0.47,2.23 2.31,4.66 2.54,5.72 0.6,2.81 -1.28,1.91 1.4,4.84z"/>
   <path class="fil2" d="M328.26 363.83l4.72 8.38c2.54,-0.72 4.87,-2.51 6.73,-4.79 0.17,-4.95 0.19,-3.19 -2.87,-6.55 -4.23,0.28 -4.73,1.37 -8.58,2.96z"/>
   <path class="fil2" d="M234.45 119.65c-1.13,2.4 0.39,6.51 0.67,9.62 15.82,-2.52 8.17,-14.16 -0.67,-9.62z"/>
   <path class="fil8" d="M326.19 299.17l0.72 1.27c11.07,0.49 15.19,-0.29 25.69,-2.36 -0.36,5.54 -5.51,9.71 -7.73,14.25 8.54,-3.75 9.55,-17.32 9.56,-17.36 0.86,-2.29 3.5,-2.85 1.23,-5.61 -2.45,4.66 -5.17,4.57 -9.33,7.15l6.55 -0.52c-10.97,3.68 -14.85,3.7 -26.69,3.18z"/>
   <path class="fil4" d="M300.51 325.07l7.27 -2.92c-1.85,2.95 -4.54,4.47 -7.27,2.92zm-3.49 2.45c7.32,0.8 15.16,-1.58 17.08,-8.97 -5.67,-0.02 -16.5,2.11 -17.08,8.97z"/>
   <path class="fil2" d="M402.7 258.79l5.78 0.49c1.88,-4.2 1.77,-4.74 1.47,-9.22l-9.68 0.09c-0.23,4.2 -0.29,5.68 2.43,8.64z"/>
   <path class="fil4" d="M229.38 325.13c-2.79,1.5 -4.57,0.2 -7.41,-1.68 0.94,-0.51 -0.54,-1.59 3.84,-0.22 1.79,0.56 2.13,0.86 3.57,1.9zm-13.48 -5.65c3.63,6.87 8.99,8.89 16.98,8.04 -0.88,-6.53 -12.29,-10.4 -16.98,-8.04z"/>
   <path class="fil2" d="M121.31 238.33l9.4 1.6 0.15 -8.75 -6.27 -1.52c-2.74,3.24 -3.59,4.27 -3.28,8.67z"/>
   <path class="fil4" d="M336.12 322.91l-2.59 0.75c-2.38,2.7 -2.38,3.24 -6.12,3.97 1.45,-2.24 2.71,-3.68 5.46,-4.21l-4.63 -0.77c-4.47,-0.04 -1.9,0.5 -4.96,3.45 -1.12,1.09 -3.02,2.02 -4.41,3 4.89,4.15 12.32,0.09 16.78,-3l0.47 -3.19z"/>
   <path class="fil9" d="M324.27 318.63l0.46 0.45c1.26,1.18 0.38,0.26 1.94,1.82 0.9,0.91 1.11,1.26 1.57,1.75l4.63 0.77 0.66 0.24 2.59 -0.75 -7.33 -1.43c5.48,-2.68 9.82,0.35 11.79,-4.98 -21.04,-0.41 -7.28,0.28 -16.31,2.13z"/>
   <path class="fil2" d="M380.76 209.45l2.64 6.41c7.09,0.54 8.71,-4.06 4.68,-8.8l-7.32 2.39z"/>
   <path class="fil0" d="M365.48 346.24c3.5,2.26 3.49,2.2 7.47,0.9 1.35,-3.86 1.47,-4.16 -1.18,-7.29 -5.41,-0.62 -7.09,0.89 -6.29,6.39z"/>
   <path class="fil0" d="M158.67 341.27l-0.09 4.94c3.91,2.52 3.59,2.37 7.51,0.69 3.53,-8.92 -5.45,-7.89 -7.42,-5.63z"/>
   <path class="fil2" d="M283.92 387.14c7.31,0.25 8.94,-1.82 5.79,-8.11l-6.85 0.24 1.06 7.87z"/>
   <path class="fil4" d="M224.98 317.28c-3.4,-0.92 -1.83,1.04 -6.42,-1.88 2.66,-0.98 4.22,-0.13 6.42,1.88zm-11.81 -2.58c4.19,3.86 9.24,4.39 14.76,4.31 -2.14,-8.38 -11.36,-7.17 -14.76,-4.31z"/>
   <path class="fil10" d="M195.04 190.31l4.59 -0.52c0.31,9.29 6.92,16.46 12.75,22.59l-0.99 4.79c3.1,-2.36 2.95,-4.74 0.21,-7.87 -8.06,-9.18 -8.04,-9.24 -11.36,-21.06 -2.54,-0.6 -3.58,0.21 -5.2,2.07z"/>
   <path class="fil10" d="M318.51 217.27l-0.9 -4.92c5.71,-6.11 12.26,-13.38 12.72,-22.83l4.51 0.85c-1.7,-1.97 -2.39,-2.31 -5.4,-2.62 -0.96,7.41 -4.26,14.2 -9.21,19.6 -2.37,2.59 -2.8,2.08 -4.16,6.07l2.44 3.85z"/>
   <path class="fil11" d="M216.24 311.89c-11.08,-0.5 -18.63,5.13 -31.06,0.48 3.9,5.77 9.47,3.62 15.84,2.66 3.98,-0.6 11.98,-0.84 15.22,-3.14z"/>
   <path class="fil2" d="M392.2 205.66c4.28,9.1 9.76,3.73 6.83,-2.08 -2.38,-0.39 -4.81,0.85 -6.83,2.08z"/>
   <path class="fil12" d="M211.73 319.61c4.34,1.48 1.29,0.69 1.96,-1.13l-1.51 -4.71 -8.2 2.76c3.8,2.78 2.83,2.46 7.75,3.08z"/>
   <path class="fil13" d="M315.93 320.15c4.65,-0.35 6.8,-0.92 9.99,-3.91l-8.04 -2.21 -1.95 6.12z"/>
   <path class="fil4" d="M203.07 294.48c1.04,3.74 0.13,1.75 -2.1,2.15l2.1 -2.15zm-4.47 0.3l0.78 3.4c5.72,0.71 5.66,-1.97 5.53,-7.39l-0.85 -2.26c-2.5,2.58 -2.3,4.88 -5.46,6.25z"/>
   <path class="fil14" d="M183.49 292.7l1.03 2.59c2.46,3.21 3.58,3.01 7.65,2.83l-7.41 -8.48c-1.69,1.21 -1.38,-2.22 -1.27,3.06z"/>
   <path class="fil11" d="M336.75 192.28c1.85,5.91 13.46,10.96 9.03,20.4 9.65,-3.91 -7.36,-19.6 -9.03,-20.4z"/>
   <path class="fil15" d="M139.4 212.02l2.3 -5.86 -9.9 -0.78c1.96,2.58 1.48,1.24 3.7,3.5 2.33,2.36 0.87,2.28 3.9,3.14z"/>
   <path class="fil15" d="M208.37 138.82c2.7,0.54 4.23,-0.87 6.38,-2.33 -1.68,-2.17 -6.36,-5.46 -6.37,-6.52l-0.01 8.85z"/>
   <path class="fil9" d="M337.71 298.28c7.24,-0.22 8.24,-1.48 8.33,-9.03l-8.33 9.03z"/>
   <path class="fil4" d="M347.12 218.92c-1.92,-2.62 -1.61,-0.33 0.24,-2.48 1.04,3.01 0.89,0.56 -0.24,2.48zm-2.84 -2.81c-0.45,1.06 -0.07,1.19 -0.81,2.17l5.61 4.24 -0.06 -10.08 -4.74 3.67z"/>
   <path class="fil15" d="M333.83 285.28c3.63,-2.06 2.41,-7.11 1.41,-10.59 -3.22,1.8 -3.77,6.59 -1.41,10.59z"/>
   <path class="fil15" d="M390.43 304.62l9.44 -0.26c-1.17,0.1 0.53,0.83 -1.13,-0.82l-6.83 -5.2 -1.48 6.28z"/>
   <path class="fil4" d="M329.06 296.8c-3.33,-0.79 -2.5,1.03 -2.57,-2.66l2.57 2.66zm-2.53 1.69l4.65 -1.28 -5.31 -8.55c-1.8,5.25 -1.5,5.17 0.66,9.83z"/>
   <path class="fil4" d="M183.41 216.6c-0.11,1.19 2.48,0.27 -1.38,2.15 0.29,-2.38 -1.01,-1.26 1.38,-2.15zm2.1 -0.45l-4.93 -3.59 0.26 9.86 5.38 -4.32c-0.57,-0.57 -0.67,-1.85 -0.71,-1.95z"/>
   <path class="fil15" d="M195.79 285.41c2.41,-3.72 2.34,-7.73 -0.66,-10.96 -2.09,4.33 -1.92,7.02 0.66,10.96z"/>
   <polygon class="fil15" points="259.48,391.46 266.2,391.67 263.23,383.39 "/>
   <path class="fil14" d="M195.35 295.42l-0.22 2.09c-1.92,-2.4 -0.85,-0.66 0.22,-2.09zm1.83 0.16l-1.83 -0.16 -0.82 -3.71 -1.72 -1.41c-1.06,3.78 -1.04,4.29 0.59,7.95l5.27 0.61c-0.87,-2.2 0.39,-1.71 -1.49,-3.28z"/>
   <path class="fil4" d="M334.51 227.29c1.01,1.21 2.36,0.55 1.12,4.09l-1.12 -4.09zm0 0l-1.95 0.9c1.58,3.58 2.7,5.4 6.4,6.72l-2.49 -9.8 -1.96 2.18z"/>
   <path class="fil16" d="M201.11 230.07l-0.71 1.96 3.3 -0.53c2.22,-2.15 7.45,-11.19 7.69,-14.33 -2.49,1.7 -6.24,9.95 -7.79,13.3l-2.49 -0.4z"/>
   <path class="fil4" d="M195.29 227.37l-1.1 4.02c-1.02,-3.31 -0.16,-2.55 1.1,-4.02zm0 0l-1.84 -2.22 -2.57 9.69c3.56,-1.39 4.59,-3.13 6.31,-6.48l-1.9 -0.99z"/>
   <path class="fil17" d="M344.99 279.56c4.44,-3.68 3.82,-5.25 3.56,-11.24 -3.44,3.54 -3.46,6.39 -3.56,11.24z"/>
   <path class="fil16" d="M318.51 217.27c0.5,3.59 2.32,5.21 3.78,8.56 2.08,4.76 1.83,5.58 7.26,5.81l-2.8 -1.78c-1.04,-0.8 -0.37,-0.12 -1.39,-1.37 -3.12,-3.82 -3.15,-8.59 -6.85,-11.22z"/>
   <path class="fil6" d="M356.71 238.91c1.19,-4.23 1.9,-8.79 -1.83,-11.78 -0.98,3.31 0.08,8.99 1.83,11.78z"/>
   <path class="fil6" d="M181.42 268.41c-0.36,5.06 -1.13,9.11 3.43,11.29 -0.15,-9.68 -2.11,-6.65 -3.43,-11.29z"/>
   <path class="fil18" d="M333.99 296.76c0.01,-0.02 2.57,-2.14 1.36,-0.15 -1.2,1.98 -1.41,0.32 -1.36,0.15zm2.25 -5.23c-1.73,3.2 -1.17,4.29 -4.64,5 1.7,2.65 -2.78,2.16 3.13,2.15 3.86,0 2.9,-6.08 2.48,-8.31l-0.97 1.16z"/>
   <path class="fil19" d="M184.68 202.75c2.25,-1.88 3.17,-3.85 5.12,-6.29 2.88,-3.6 3.97,-1.57 5.24,-6.15 -3.83,1.87 -9.77,7.7 -10.36,12.44z"/>
   <path class="fil17" d="M189.4 264.42c2.28,-2.61 3.19,-6.38 2.77,-9.75 -3.33,1.16 -4.02,6.66 -2.77,9.75z"/>
   <path class="fil6" d="M340.53 264.43c1.14,-3.65 0.41,-8.34 -3.1,-9.88 -0.11,3.76 1.09,7.24 3.1,9.88z"/>
   <path class="fil6" d="M228.35 190.61c4.22,0.17 8.07,0.07 11.84,-1.84 -4.11,-0.54 -9.24,-1.65 -11.84,1.84z"/>
   <path class="fil17" d="M289.69 188.78c3.31,1.94 7.89,2 11.8,1.78 -3.31,-3.42 -7.13,-2.41 -11.8,-1.78z"/>
   <path class="fil5" d="M292.7 177.72c-2.39,-3.72 -5.97,-3.34 -10.26,-3.1 3.93,2.58 5.57,2.97 10.26,3.1z"/>
   <path class="fil5" d="M237.19 177.71c4.61,-0.21 6.37,-0.72 10.28,-3.1 -4.35,-0.25 -7.9,-0.67 -10.28,3.1z"/>
   <path class="fil20" d="M184.68 202.75c-5.01,1.69 -5.45,8.38 0.57,11.02 -1.91,-3.94 -1.55,-1.38 -3.02,-5.23l2.45 -5.79z"/>
   <path class="fil17" d="M232.15 341.91c-4.04,-1.17 -3.78,-1.09 -7.8,0.19 1.89,2.75 6.13,3.22 7.8,-0.19z"/>
   <path class="fil17" d="M324.27 190.2c1.47,-3.4 -0.5,-4.23 -1.51,-8.06 -0.94,1.32 -2.56,-0.16 -0.9,4.85 0.73,2.17 0.98,2.01 2.41,3.21z"/>
   <path class="fil15" d="M297.73 341.88c2.44,3.05 3.99,3.51 7.42,0.56 -3.05,-1.93 -3.83,-1.51 -7.42,-0.56z"/>
   <path class="fil17" d="M247.55 321.06c-0.23,-4.11 -1.58,-4.81 -4.19,-7.71 -0.33,3.61 0.61,6.7 4.19,7.71z"/>
   <path class="fil5" d="M289.19 326.74c3.59,-1.51 6.36,-3.79 8.07,-7.06 -3.81,1.45 -6.54,3.11 -8.07,7.06z"/>
   <path class="fil5" d="M232.56 319.66c4.03,3.2 0.92,4.28 8.11,7.06 -1.57,-4.38 -3.73,-5.3 -8.11,-7.06z"/>
   <path class="fil17" d="M282.43 320.96c3.42,-0.96 4.28,-4.13 3.99,-7.59 -2.61,2.95 -4.06,3.51 -3.99,7.59z"/>
   <path class="fil21" d="M217.11 180l11 -6.11c-5.21,0.62 -8.17,1.04 -11,6.11z"/>
   <path class="fil22" d="M301.89 173.71c0.5,0.14 8.78,5.26 10.87,6.34 -1.34,-3.87 -6.75,-6.25 -10.87,-6.34z"/>
   <polygon class="fil0" points="339.49,220.85 344.28,216.11 345.28,212.51 336.32,222.36 "/>
   <path class="fil17" d="M205.66 190.24c2.68,-2.54 3.17,-4.28 2.68,-7.99 -2,2.67 -4.45,4.57 -2.68,7.99z"/>
   <path class="fil23" d="M341.52 247.47c-0.37,-4.82 -2.66,-6.67 -7.22,-7.88l7.22 7.88z"/>
   <path class="fil17" d="M288.41 336.18c4.01,0.09 5.57,-0.47 8.08,-3.53 -5.17,0.12 -4.72,0.26 -8.08,3.53z"/>
   <path class="fil17" d="M233.29 332.59c2.56,3.1 4,3.77 8.14,3.55 -3.6,-2.75 -2.5,-3.3 -8.14,-3.55z"/>
   <path class="fil5" d="M188.22 247.47l7.25 -7.93c-5.4,1.53 -5.79,2.72 -7.25,7.93z"/>
   <path class="fil10" d="M317.62 303.33c5.3,-3.02 0.15,-3.88 7.87,-3.82 -2.52,-1.91 -1.72,-1.33 -5.24,-1.95l-2.63 5.77z"/>
   <path class="fil4" d="M339.49 220.85l-0.1 5.45c2.8,-2.4 2.56,-3.3 2.91,-7.34l-2.81 1.89z"/>
   <path class="fil5" d="M307.73 185.81c2.23,5.13 0.63,3.38 6.97,5.19 -1.77,-2.43 -4.14,-4.01 -6.97,-5.19z"/>
   <path class="fil5" d="M229.38 325.13c-1.44,-1.04 -1.78,-1.34 -3.57,-1.9 -4.38,-1.37 -2.9,-0.29 -3.84,0.22 2.84,1.88 4.62,3.18 7.41,1.68z"/>
   <path class="fil23" d="M173.13 236.68c2.06,-2.38 2.02,-5.21 1.53,-8.65 -2.03,2.88 -2.43,5.02 -1.53,8.65z"/>
   <path class="fil22" d="M172.48 266.3c0.79,-5.41 -1.58,-10.95 -1.42,-12.06 -1.52,5.92 0.45,7.72 1.42,12.06z"/>
   <path class="fil0" d="M181.8 308.87c-0.85,-2.9 -2.79,-6.79 -4.82,-8.53 0.15,3.38 2.18,6.94 4.82,8.53z"/>
   <path class="fil24" d="M176.63 286.4c-1.15,-4.48 -0.23,-5.02 -4.15,-8 0.92,6.7 1.55,3.9 4.15,8z"/>
   <path class="fil19" d="M329.58 229.98c2.4,-1.51 5.17,-4.6 6.53,-7.6 -3.61,1.77 -4.91,3.66 -6.53,7.6z"/>
   <path class="fil21" d="M353.51 285.48c3.15,-2.31 3.26,-2.89 3.78,-6.98 -3.51,2.42 -3,2.76 -3.78,6.98z"/>
   <path class="fil22" d="M357.18 266.04c2.19,-2.72 2.35,-7.57 1.76,-11.86 -0.15,2.99 -1.92,6.07 -1.76,11.86z"/>
   <path class="fil23" d="M220.28 328.68c-3.41,-2.31 -1.77,-3.28 -7.57,-4.7 1.71,2.79 4.14,4.6 7.57,4.7z"/>
   <path class="fil4" d="M333.87 234.5c-1.47,-5.85 -2.43,-3.22 -5.51,-0.41l5.51 0.41z"/>
   <path class="fil25" d="M211.54 202.97c4.03,-0.75 4.11,-0.96 7.12,-3.48 -2.94,-0.4 -5.41,0.35 -7.12,3.48z"/>
   <path class="fil23" d="M214.89 190.66c4.52,-0.71 6.55,-0.28 7.04,-4.72l-7.04 4.72z"/>
   <path class="fil25" d="M309.53 328.77c3.49,-0.37 5.8,-1.96 7.65,-4.8 -4.94,1.68 -4.1,1.68 -7.65,4.8z"/>
   <path class="fil21" d="M310.98 199.23c3.87,2.17 1.44,2.79 7.3,3.72 -1.93,-3.31 -3.52,-3.38 -7.3,-3.72z"/>
   <path class="fil4" d="M198.96 234.63l2.15 -0.57 -1.33 -2.01c-3.24,-0.4 -0.32,-0.89 -4,0.84 1.88,3.28 -0.83,0.68 3.18,1.74z"/>
   <path class="fil23" d="M196.23 323.26c1.98,3.08 2.39,3.74 6.2,4.33 -1.84,-2.6 -2.8,-3.83 -6.2,-4.33z"/>
   <path class="fil23" d="M333.53 323.66l-0.66 -0.24c-2.75,0.53 -4.01,1.97 -5.46,4.21 3.74,-0.73 3.74,-1.27 6.12,-3.97z"/>
   <path class="fil5" d="M184.64 234.23c1.52,-3.75 1.9,-3.17 0.3,-6.92 -1.07,3.03 -1.86,3.83 -0.3,6.92z"/>
   <path class="fil5" d="M300.51 325.07c2.73,1.55 5.42,0.03 7.27,-2.92l-7.27 2.92z"/>
   <path class="fil26" d="M304.78 317.12c3.81,0.03 3.27,0.59 6.57,-1.77 -3.09,-1.11 -4.14,0.04 -6.57,1.77z"/>
   <path class="fil5" d="M345.31 233.92c1.36,-2.8 0.25,-3.93 -0.38,-6.62 -1.4,3.21 -1.53,3.34 0.38,6.62z"/>
   <polygon class="fil4" points="190.35,220.92 187.63,219.11 189.57,226.3 "/>
   <path class="fil19" d="M200.3 229.3l-5.85 -6.84c0.66,3.34 -0.34,1.15 2.01,3.88 3.13,3.61 0.64,2.08 3.84,2.96z"/>
   <path class="fil26" d="M224.98 317.28c-2.2,-2.01 -3.76,-2.86 -6.42,-1.88 4.59,2.92 3.02,0.96 6.42,1.88z"/>
   <path class="fil5" d="M318.78 334.76l-7.45 0.3c3.51,1.5 4.14,1.78 7.45,-0.3z"/>
   <path class="fil5" d="M211.05 334.71c3.73,2.43 3.87,1.55 7.44,0.39l-7.44 -0.39z"/>
   <path class="fil27" d="M248.68 326.43l4.75 -3.43c0.72,-1.79 1.32,-1.81 -0.93,-3.29l0.83 2.64c-2.98,2.18 -2.82,1.11 -4.65,4.08z"/>
   <path class="fil5" d="M180.82 255.57l-0.3 -7.28c-0.77,3.15 -2.25,3.36 0.3,7.28z"/>
   <path class="fil6" d="M348.69 255.39c2.27,-3.11 1.93,-3.82 1.07,-7.06l-1.07 7.06z"/>
   <path class="fil0" d="M185.51 216.15l2.51 -0.21 -1.03 -2.2c-2.09,1.54 -2.45,-2.25 -1.48,2.41z"/>
   <polygon class="fil28" points="281.17,326.42 280.5,324.24 276.06,322.65 276.5,323 "/>
   <path class="fil0" d="M181.8 308.87c1.1,2.9 0.26,1.75 3.12,3.36 -1.13,-2.75 0.39,-1.76 -3.12,-3.36z"/>
   <path class="fil29" d="M211.73 319.61l-0.41 1.01 1.04 0.69 2.33 -0.58 -1 -2.25c-0.67,1.82 2.38,2.61 -1.96,1.13z"/>
   <path class="fil30" d="M329.06 296.8l-2.57 -2.66c0.07,3.69 -0.76,1.87 2.57,2.66z"/>
   <path class="fil31" d="M200.97 296.63c2.23,-0.4 3.14,1.59 2.1,-2.15l-2.1 2.15z"/>
   <polygon class="fil0" points="190.35,220.92 192.79,220.75 190.58,218.53 "/>
   <path class="fil0" d="M336.75 192.28c-0.73,-2.47 0.71,-1.17 -1.91,-1.91l0.49 1.26c0,1.74 -0.33,1.3 1.42,0.65z"/>
   <path class="fil24" d="M334.51 227.29l1.12 4.09c1.24,-3.54 -0.11,-2.88 -1.12,-4.09z"/>
   <path class="fil32" d="M182.03 218.75c3.86,-1.88 1.27,-0.96 1.38,-2.15 -2.39,0.89 -1.09,-0.23 -1.38,2.15z"/>
   <path class="fil24" d="M195.29 227.37c-1.26,1.47 -2.12,0.71 -1.1,4.02l1.1 -4.02z"/>
   <path class="fil24" d="M347.12 218.92c1.13,-1.92 1.28,0.53 0.24,-2.48 -1.85,2.15 -2.16,-0.14 -0.24,2.48z"/>
   <path class="fil26" d="M335.35 296.61c1.21,-1.99 -1.35,0.13 -1.36,0.15 -0.05,0.17 0.16,1.83 1.36,-0.15z"/>
   <polygon class="fil16" points="315.76,305.1 317.62,303.33 315.86,303.56 "/>
   <path class="fil33" d="M195.35 295.42c-1.07,1.43 -2.14,-0.31 -0.22,2.09l0.22 -2.09z"/>
   <polygon class="fil34" points="135.07,240.79 134.3,239.52 132.86,239.91 "/>
   <polygon class="fil35" points="384.42,282.5 387.27,284.27 388.88,281.22 387.96,283.82 "/>
   <polygon class="fil36" points="247.19,339.2 247.38,339.17 250.7,341.75 "/>
   <polygon class="fil31" points="247.6,344.22 248.63,342.47 247.64,343.9 "/>
   <polygon class="fil36" points="282.46,339.13 282.67,339.01 278.87,341.52 "/>
   <polygon class="fil37" points="171.39,76.16 171.92,74.62 "/>
  </g>
 </g>
</svg>
